<?xml version="1.0" encoding="UTF-8"?>
<svg version="1.1" xmlns="http://www.w3.org/2000/svg" width="4122" height="1014">
<path d="M0 0 C0.66 0 1.32 0 2 0 C95.75 162.49999999 95.75 162.49999999 97.62524414 165.75048828 C98.87435518 167.91557071 100.12354129 170.08060982 101.37280273 172.24560547 C104.51202309 177.68615706 107.64990563 183.12747216 110.78515625 188.5703125 C116.80747329 199.02206199 122.84669337 209.46299548 128.9375 219.875 C134.35921178 229.14499777 139.70204915 238.45831752 145.01922607 247.78845215 C150.22045129 256.9128284 155.48027878 266.00132774 160.78344727 275.06689453 C166.93766742 285.59084625 173.02369996 296.15380137 179.10888672 306.71777344 C182.23680148 312.14659942 185.36858448 317.57319281 188.5 323 C189.75001879 325.16665583 191.00001878 327.3333225 192.25 329.5 C193.178125 331.10875 193.178125 331.10875 194.125 332.75 C244.75 420.5 244.75 420.5 246.62744141 423.75439453 C247.86911527 425.9065213 249.11097522 428.05854073 250.35302734 430.21044922 C253.26166823 435.25030977 256.16851898 440.29117492 259.06854248 445.33599854 C260.09275665 447.11749578 261.11757651 448.89864322 262.14257812 450.6796875 C263.42633375 452.91076625 264.70895939 455.14249573 265.99023438 457.375 C266.57353516 458.38820313 267.15683594 459.40140625 267.7578125 460.4453125 C268.30598633 461.39825195 268.85416016 462.35119141 269.41894531 463.33300781 C270.87660925 465.79185908 272.41577374 468.17108046 273.9921875 470.5546875 C274.98605469 472.26011719 274.98605469 472.26011719 276 474 C275.67 474.99 275.34 475.98 275 477 C274.5875 476.61255615 274.175 476.2251123 273.75 475.82592773 C264.01373078 466.65539085 264.01373078 466.65539085 254.01953125 457.76953125 C251.30513851 455.39115618 248.65425983 452.94492818 246 450.5 C242.7214895 447.48069231 239.43418914 444.4779775 236.0625 441.5625 C231.87967989 437.93855356 227.83728193 434.16744254 223.77978516 430.40478516 C220.26787256 427.15384488 216.70998582 423.97015687 213.08984375 420.83984375 C209.81885511 417.96015095 206.62496909 414.99645747 203.41943359 412.04443359 C200.66508903 409.51245176 197.8924879 407.00957199 195.0625 404.5625 C190.87967989 400.93855356 186.83728193 397.16744254 182.77978516 393.40478516 C179.26787256 390.15384488 175.70998582 386.97015687 172.08984375 383.83984375 C168.81885511 380.96015095 165.62496909 377.99645747 162.41943359 375.04443359 C159.66508903 372.51245176 156.8924879 370.00957199 154.0625 367.5625 C149.87967989 363.93855356 145.83728193 360.16744254 141.77978516 356.40478516 C138.26787256 353.15384488 134.70998582 349.97015687 131.08984375 346.83984375 C127.81885511 343.96015095 124.62496909 340.99645747 121.41943359 338.04443359 C118.66508903 335.51245176 115.8924879 333.00957199 113.0625 330.5625 C108.87967989 326.93855356 104.83728193 323.16744254 100.77978516 319.40478516 C97.26787256 316.15384488 93.70998582 312.97015687 90.08984375 309.83984375 C86.81885511 306.96015095 83.62496909 303.99645747 80.41943359 301.04443359 C77.66508903 298.51245176 74.8924879 296.00957199 72.0625 293.5625 C67.87967989 289.93855356 63.83728193 286.16744254 59.77978516 282.40478516 C56.26787256 279.15384488 52.70998582 275.97015687 49.08984375 272.83984375 C45.81885511 269.96015095 42.62496909 266.99645747 39.41943359 264.04443359 C36.05982508 260.95605175 32.65240151 257.93574826 29.19921875 254.953125 C27.38426682 253.34126716 25.60370731 251.70564249 23.83203125 250.046875 C23.26282959 249.51505615 22.69362793 248.9832373 22.10717773 248.43530273 C20.98208793 247.38125454 19.86030235 246.32366423 18.74243164 245.26196289 C15.35713341 242.09236141 11.92704795 239.47062025 8 237 C-0.59207769 251.42296398 -9.12020762 265.87733481 -17.49023438 280.43066406 C-21.657368 287.67604309 -25.84775474 294.90721192 -30.0625 302.125 C-30.63701904 303.10895752 -31.21153809 304.09291504 -31.8034668 305.10668945 C-34.11135202 309.05791622 -36.42044323 313.0084376 -38.72949219 316.95898438 C-40.46606836 319.93065505 -42.20201192 322.90269374 -43.9375 325.875 C-44.51395264 326.86218018 -45.09040527 327.84936035 -45.68432617 328.86645508 C-49.9420168 336.16611392 -54.16189825 343.48704158 -58.375 350.8125 C-64.1718926 360.88756713 -70.07273293 370.89712756 -76.01464844 380.88720703 C-81.24642485 389.69627732 -86.38596364 398.55568107 -91.49389648 407.43701172 C-97.37418763 417.66111336 -103.31508986 427.84917774 -109.26611328 438.03222656 C-112.1801084 443.01990957 -115.08982568 448.01008705 -118 453 C-119.16664643 455.0000118 -120.33331309 457.00001181 -121.5 459 C-122.0775 459.99 -122.655 460.98 -123.25 462 C-128.5 471 -128.5 471 -130.24975586 473.99951172 C-131.41731728 476.00109211 -132.58479764 478.00271977 -133.75219727 480.00439453 C-136.65451416 484.98060392 -139.55819916 489.95600455 -142.46484375 494.9296875 C-148.46777059 505.20532557 -154.44187788 515.49638563 -160.375 525.8125 C-166.1718926 535.88756713 -172.07273293 545.89712756 -178.01464844 555.88720703 C-183.24642485 564.69627732 -188.38596364 573.55568107 -193.49389648 582.43701172 C-199.37418763 592.66111336 -205.31508986 602.84917774 -211.26611328 613.03222656 C-214.1801084 618.01990957 -217.08982568 623.01008705 -220 628 C-221.16664643 630.0000118 -222.33331309 632.00001181 -223.5 634 C-224.0775 634.99 -224.655 635.98 -225.25 637 C-230.5 646 -230.5 646 -232.24975586 648.99951172 C-233.41731728 651.00109211 -234.58479764 653.00271977 -235.75219727 655.00439453 C-238.65451416 659.98060392 -241.55819916 664.95600455 -244.46484375 669.9296875 C-250.46777059 680.20532557 -256.44187788 690.49638563 -262.375 700.8125 C-268.1718926 710.88756713 -274.07273293 720.89712756 -280.01464844 730.88720703 C-285.24642485 739.69627732 -290.38596364 748.55568107 -295.49389648 757.43701172 C-301.36992745 767.65370615 -307.30631493 777.83452493 -313.25292969 788.01025391 C-316.23294921 793.10993516 -319.21039113 798.2111192 -322.1875 803.3125 C-322.70900635 804.20533691 -323.2305127 805.09817383 -323.76782227 806.01806641 C-324.29174561 806.9157373 -324.81566895 807.8134082 -325.35546875 808.73828125 C-325.91285233 809.62595184 -326.4702359 810.51362244 -327.04450989 811.42819214 C-328.62716606 814.10568667 -329.63972078 816.75844065 -330.63235474 819.70251465 C-332.78389982 825.33774695 -335.16975397 830.21870188 -340 834 C-349.33509052 837.29090465 -360.02870962 836.27184264 -369.78926444 835.92648482 C-373.73908486 835.80699337 -377.68923044 835.79649623 -381.64057922 835.77400208 C-389.10845966 835.71514339 -396.57100057 835.55954194 -404.03653795 835.36836177 C-412.54131443 835.1553384 -421.04635824 835.05136927 -429.55314195 834.95614851 C-447.03850755 834.75800282 -464.51868791 834.4242386 -482 834 C-481.04009032 832.23749378 -480.07985898 830.47516274 -479.11949158 828.71290588 C-478.31745001 827.24078062 -478.31745001 827.24078062 -477.49920559 825.73891544 C-475.84309485 822.71334822 -474.15406112 819.70875236 -472.44140625 816.71484375 C-471.81613037 815.62091309 -471.19085449 814.52698242 -470.54663086 813.39990234 C-469.56448608 811.68601318 -469.56448608 811.68601318 -468.5625 809.9375 C-467.8587682 808.7078663 -467.15507432 807.47821091 -466.45141602 806.24853516 C-459.94966534 794.89194877 -453.41062481 783.55691283 -446.86328125 772.2265625 C-444.9796495 768.96475993 -443.09877679 765.70138156 -441.21875 762.4375 C-434.60090832 750.95040905 -427.95512768 739.48054255 -421.26708984 728.03417969 C-415.10080946 717.47379718 -408.9950405 706.87873234 -402.89111328 696.28222656 C-399.76319852 690.85340058 -396.63141552 685.42680719 -393.5 680 C-392.24998121 677.83334417 -390.99998122 675.6666775 -389.75 673.5 C-387.25 669.16666667 -384.75 664.83333333 -382.25 660.5 C-381.63116943 659.42733887 -381.01233887 658.35467773 -380.37475586 657.24951172 C-379.12564482 655.08442929 -377.87645871 652.91939018 -376.62719727 650.75439453 C-373.48797691 645.31384294 -370.35009437 639.87252784 -367.21484375 634.4296875 C-360.59777108 622.9455118 -353.95366023 611.47803106 -347.26708984 600.03417969 C-341.10080946 589.47379718 -334.9950405 578.87873234 -328.89111328 568.28222656 C-325.76319852 562.85340058 -322.63141552 557.42680719 -319.5 552 C-318.24998121 549.83334417 -316.99998122 547.6666775 -315.75 545.5 C-313.25 541.16666667 -310.75 536.83333333 -308.25 532.5 C-307.63116943 531.42733887 -307.01233887 530.35467773 -306.37475586 529.24951172 C-305.12564482 527.08442929 -303.87645871 524.91939018 -302.62719727 522.75439453 C-299.48797691 517.31384294 -296.35009437 511.87252784 -293.21484375 506.4296875 C-286.59777108 494.9455118 -279.95366023 483.47803106 -273.26708984 472.03417969 C-267.10080946 461.47379718 -260.9950405 450.87873234 -254.89111328 440.28222656 C-251.76319852 434.85340058 -248.63141552 429.42680719 -245.5 424 C-244.24998121 421.83334417 -242.99998122 419.6666775 -241.75 417.5 C-239.25 413.16666667 -236.75 408.83333333 -234.25 404.5 C-233.63116943 403.42733887 -233.01233887 402.35467773 -232.37475586 401.24951172 C-231.12564482 399.08442929 -229.87645871 396.91939018 -228.62719727 394.75439453 C-225.48797691 389.31384294 -222.35009437 383.87252784 -219.21484375 378.4296875 C-212.59777108 366.9455118 -205.95366023 355.47803106 -199.26708984 344.03417969 C-193.10080946 333.47379718 -186.9950405 322.87873234 -180.89111328 312.28222656 C-177.76319852 306.85340058 -174.63141552 301.42680719 -171.5 296 C-170.24998121 293.83334417 -168.99998122 291.6666775 -167.75 289.5 C-160.25 276.5 -152.75 263.5 -145.25 250.5 C-144.63116943 249.42733887 -144.01233887 248.35467773 -143.37475586 247.24951172 C-142.12564482 245.08442929 -140.87645871 242.91939018 -139.62719727 240.75439453 C-136.48797691 235.31384294 -133.35009437 229.87252784 -130.21484375 224.4296875 C-123.59777108 212.9455118 -116.95366023 201.47803106 -110.26708984 190.03417969 C-104.10080946 179.47379718 -97.9950405 168.87873234 -91.89111328 158.28222656 C-88.76319852 152.85340058 -85.63141552 147.42680719 -82.5 142 C-81.24998121 139.83334417 -79.99998122 137.6666775 -78.75 135.5 C-76.25 131.16666667 -73.75 126.83333333 -71.25 122.5 C-70.63116943 121.42733887 -70.01233887 120.35467773 -69.37475586 119.24951172 C-68.12564482 117.08442929 -66.87645871 114.91939018 -65.62719727 112.75439453 C-62.48797691 107.31384294 -59.35009437 101.87252784 -56.21484375 96.4296875 C-49.59777108 84.9455118 -42.95366023 73.47803106 -36.26708984 62.03417969 C-32.0101723 54.74377529 -27.77942274 47.43860555 -23.5625 40.125 C-22.95003418 39.06289307 -22.33756836 38.00078613 -21.70654297 36.90649414 C-18.74253 31.76424564 -15.78126583 26.62042865 -12.82377625 21.47442627 C-11.42818529 19.04665732 -10.03141585 16.61956752 -8.63449097 14.19256592 C-7.64128534 12.46581312 -6.64985135 10.73804168 -5.65844727 9.01025391 C-5.06217529 7.97433105 -4.46590332 6.9384082 -3.8515625 5.87109375 C-3.32385254 4.95255615 -2.79614258 4.03401855 -2.25244141 3.08764648 C-1 1 -1 1 0 0 Z " fill="white" transform="translate(482,180)"/>
<path d="M0 0 C3.8339058 1.2779686 4.10636815 2.47450668 6.00390625 5.96875 C6.57423584 7.00572021 7.14456543 8.04269043 7.73217773 9.11108398 C8.33618408 10.22942627 8.94019043 11.34776855 9.5625 12.5 C10.83454357 14.81456871 12.10798382 17.12837037 13.3828125 19.44140625 C14.00446289 20.57336426 14.62611328 21.70532227 15.26660156 22.87158203 C17.4250432 26.76711317 19.6586966 30.61149881 21.9375 34.4375 C26.07428718 41.40703097 30.14122082 48.41502773 34.1875 55.4375 C34.82550537 56.54472412 35.46351074 57.65194824 36.12084961 58.79272461 C37.42889477 61.06337068 38.73675448 63.33412358 40.04443359 65.60498047 C43.19332054 71.0716998 46.34683264 76.53574887 49.5 82 C50.7500235 84.16665311 52.00002347 86.33331979 53.25 88.5 C53.86875 89.5725 54.4875 90.645 55.125 91.75 C72 121 88.875 150.25 105.75 179.5 C106.36866943 180.57233887 106.98733887 181.64467773 107.62475586 182.74951172 C108.8756448 184.91776264 110.12645852 187.08605697 111.37719727 189.25439453 C114.48798335 194.64717915 117.60004238 200.03922093 120.71484375 205.4296875 C127.53502637 217.23629484 134.3232326 229.06027 141.07736206 240.90472412 C146.23335445 249.94329428 151.45320673 258.94277138 156.71118164 267.92236328 C161.53872836 276.17923642 166.28548671 284.48094031 171.02050781 292.79101562 C175.63502852 300.88744218 180.29103794 308.95801457 185 317 C190.0318979 325.5951729 195.00389124 334.22312222 199.9375 342.875 C206.96603507 355.20025196 214.04240434 367.49722067 221.14111328 379.78222656 C224.26324605 385.18670645 227.38141204 390.59347412 230.5 396 C231.74998122 398.1666775 232.99998121 400.33334417 234.25 402.5 C276.75 476.16666667 319.25 549.83333333 361.75 623.5 C362.36866943 624.57233887 362.98733887 625.64467773 363.62475586 626.74951172 C364.8756448 628.91776264 366.12645852 631.08605697 367.37719727 633.25439453 C370.48798335 638.64717915 373.60004238 644.03922093 376.71484375 649.4296875 C383.53502637 661.23629484 390.3232326 673.06027 397.07736206 684.90472412 C402.23335445 693.94329428 407.45320673 702.94277138 412.71118164 711.92236328 C417.53872836 720.17923642 422.28548671 728.48094031 427.02050781 736.79101562 C431.63502852 744.88744218 436.29103794 752.95801457 441 761 C446.71394948 770.7602107 452.34352476 780.56705713 457.94238281 790.39355469 C461.34541313 796.36436466 464.76081643 802.32742683 468.20703125 808.2734375 C468.54882919 808.86361664 468.89062714 809.45379578 469.24278259 810.06185913 C470.86844131 812.86833768 472.4965336 815.67335218 474.12866211 818.47607422 C474.71010986 819.47912598 475.29155762 820.48217773 475.890625 821.515625 C476.39625977 822.38477539 476.90189453 823.25392578 477.42285156 824.14941406 C479.39158499 827.70776259 481.1813326 831.3626652 483 835 C301.17 835 119.34 835 -68 835 C-67 833 -67 833 -64.64189148 832.03436279 C-63.06091423 831.52767059 -63.06091423 831.52767059 -61.44799805 831.01074219 C-60.24335907 830.62054398 -59.03872009 830.23034576 -57.7975769 829.82832336 C-56.45233062 829.40104867 -55.10704321 828.97390346 -53.76171875 828.546875 C-52.35876156 828.09545546 -50.95602582 827.64334721 -49.55349731 827.19059753 C-46.52840515 826.21565759 -43.5018325 825.24551028 -40.47402954 824.27902222 C-35.63941188 822.73576499 -30.80811842 821.18228394 -25.97729492 819.62719727 C-20.1206573 817.74265664 -14.26322351 815.86063032 -8.40470219 813.98195362 C1.55532973 810.78794932 11.51014968 807.57815077 21.4609375 804.35546875 C22.50441251 804.01754869 22.50441251 804.01754869 23.56896782 803.67280197 C26.35937479 802.76908995 29.14974361 801.86526029 31.94004726 800.96122932 C38.9556334 798.68827636 45.97229727 796.41865921 52.98905754 794.14933395 C56.50885361 793.01096069 60.02859518 791.87241893 63.54833984 790.73388672 C64.24497836 790.50854815 64.94161688 790.28320957 65.65936565 790.05104256 C76.98008774 786.38914804 88.30054415 782.72643225 99.62103462 779.06382179 C104.57872298 777.45982339 109.53642774 775.8558757 114.49414062 774.25195312 C127.98465243 769.88747949 141.47508603 765.52276447 154.96530533 761.15738678 C161.37267514 759.08400338 167.78007743 757.01072035 174.1875 754.9375 C175.22820396 754.60076389 175.22820396 754.60076389 176.28993225 754.25722504 C208.52326387 743.82775785 240.76112449 733.4123159 273 723 C271.55805394 719.31727709 269.93719419 715.90915571 268.015625 712.44921875 C267.41741943 711.37075684 266.81921387 710.29229492 266.20288086 709.18115234 C265.55215348 708.0164714 264.90118697 706.85192404 264.25 705.6875 C263.91775421 705.09108704 263.58550842 704.49467407 263.24319458 703.88018799 C258.01251873 694.49192357 252.64806942 685.18787507 247.20214844 675.92260742 C243.04262769 668.83166502 238.99722806 661.68353735 235 654.5 C230.424336 646.2779741 225.76429252 638.1141857 221 630 C215.62803207 620.85086711 210.40923475 611.62596869 205.25 602.35546875 C201.25035548 595.18646305 197.15651956 588.07907237 193 581 C188.23570437 572.88580901 183.57588149 564.72190812 179 556.5 C173.90169076 547.34276685 168.68691945 538.2630683 163.38623047 529.22167969 C158.91721265 521.5920119 154.50638369 513.93022514 150.125 506.25 C149.79163635 505.66568207 149.45827271 505.08136414 149.11480713 504.4793396 C147.4199651 501.5080802 145.72592016 498.53636728 144.03222656 495.56445312 C141.02529256 490.28906705 138.01140383 485.01765562 134.99798584 479.74597168 C133.3317007 476.83081342 131.66587373 473.91539337 130 471 C129.33333552 469.83333208 128.66666886 468.66666541 128 467.5 C95 409.75 62 352 -4 236.5 C-4.32999496 235.92251007 -4.65998993 235.34502014 -4.99998474 234.75003052 C-5.66670665 233.58326463 -6.33342418 232.41649624 -7.00013733 231.24972534 C-8.66592284 228.33455622 -10.33178427 225.41943053 -11.99780273 222.50439453 C-15.00840313 217.23656805 -18.01844147 211.96842441 -21.02566528 206.69866943 C-28.42961502 193.7243549 -35.85771491 180.76456776 -43.33154297 167.83032227 C-50.06691602 156.16691018 -56.77570993 144.48673626 -63.40771484 132.76416016 C-64.3665242 131.09969534 -65.34947417 129.44834865 -66.37744141 127.82568359 C-69.05627047 123.57093798 -69.05627047 123.57093798 -68.76806641 120.64672852 C-67.90953718 117.68826846 -66.71086134 115.32054175 -65.19140625 112.640625 C-64.61463135 111.61654541 -64.03785645 110.59246582 -63.44360352 109.53735352 C-62.51245728 107.91011353 -62.51245728 107.91011353 -61.5625 106.25 C-60.60525024 104.55991821 -60.60525024 104.55991821 -59.62866211 102.83569336 C-55.38154264 95.35796409 -51.05830489 87.92785422 -46.671875 80.53125 C-43.33998053 74.90132079 -40.07857128 69.2307813 -36.8125 63.5625 C-36.17521973 62.45672607 -35.53793945 61.35095215 -34.88134766 60.21166992 C-32.9203862 56.8080747 -30.96011785 53.40408111 -29 50 C-19.38403004 33.30335793 -9.72676672 16.6323402 0 0 Z " fill="white" transform="translate(585,0)"/>
<path d="M0 0 C0.66 0 1.32 0 2 0 C-1.86980699 19.77230454 -6.04422393 39.47487441 -10.26059222 59.17541265 C-11.21611006 63.64176104 -12.16970719 68.10851957 -13.12355042 72.57522583 C-14.9656603 81.20014599 -16.80945452 89.82470518 -18.65386325 98.44913399 C-20.78638737 108.42112159 -22.91717423 118.39348015 -25.04785204 128.36586237 C-28.49860722 144.51654193 -31.95044652 160.66698948 -35.40317678 176.81724691 C-39.63131532 196.5945454 -43.85677482 216.37241439 -48.08003992 236.15075409 C-50.18980315 246.03112271 -52.30014153 255.91136847 -54.41057682 265.79159355 C-54.71600958 267.22151556 -55.0214419 268.65143767 -55.32687378 270.08135986 C-55.47640666 270.78141604 -55.62593954 271.48147222 -55.78000373 272.20274222 C-56.82020105 277.07267535 -57.86011476 281.94266899 -58.89993286 286.81268311 C-60.28481586 293.2987369 -61.67051289 299.78461643 -63.05674553 306.27038193 C-63.554173 308.59826081 -64.05135362 310.92619246 -64.5482502 313.25418472 C-65.22434629 316.42155784 -65.90137201 319.58873095 -66.57861328 322.75585938 C-66.76644158 323.63685995 -66.95426989 324.51786053 -67.14778996 325.42555809 C-69.04641271 334.29521199 -71.02585531 343.14691776 -73 352 C-71.27827167 352.00634791 -71.27827167 352.00634791 -69.52176094 352.01282406 C11.9523301 352.31328812 93.42640662 352.61765006 246.30504465 353.20783168 C254.10674794 353.23856944 261.90845301 353.26879165 269.71015978 353.2986322 C294.8740356 353.39512283 320.03778264 353.50094465 345.20146465 353.63961589 C354.99962965 353.69327273 364.79780882 353.74422645 374.595994 353.79405093 C377.00806258 353.80632128 379.42013064 353.81869646 381.83219814 353.83117795 C414.77457837 354.0004412 447.71010809 353.97565789 480.65212792 353.75132513 C488.48787195 353.69927326 496.32356653 353.66227867 504.15943909 353.63635254 C505.23843037 353.63276246 506.31742165 353.62917237 507.42910963 353.6254735 C512.77121137 353.60827344 518.11331425 353.59312802 523.45542622 353.57950592 C534.63964921 353.54770886 545.82095129 353.46277688 557.00413114 353.30604553 C564.4471393 353.20578471 571.88889846 353.16516858 579.33257407 353.17293549 C583.57164578 353.17522346 587.80566741 353.14968906 592.04362297 353.04782104 C616.52380635 352.48248517 616.52380635 352.48248517 622.28333473 356.6536274 C625.82652666 360.59678078 627.72691725 364.89926222 629.29210854 369.91671181 C630.35705244 373.05078697 631.98542737 375.62655293 633.73046875 378.43359375 C634.88355831 380.43446621 636.03589289 382.43577394 637.1875 384.4375 C638.4830528 386.68620951 639.77862632 388.93490708 641.07421875 391.18359375 C642.0494751 392.87718018 642.0494751 392.87718018 643.04443359 394.60498047 C646.19332051 400.07169975 649.3467849 405.53577646 652.5 411 C656.26365365 417.52232439 660.02644623 424.04513763 663.78515625 430.5703125 C665.04421297 432.75524168 666.30332722 434.94013771 667.5625 437.125 C668.47926514 438.71646851 668.47926514 438.71646851 669.41455078 440.34008789 C672.5974116 445.85898178 675.79625898 451.36787902 679.01953125 456.86328125 C679.66656006 457.96720215 680.31358887 459.07112305 680.98022461 460.20849609 C682.2167783 462.3157837 683.45576341 464.42164697 684.69750977 466.52587891 C685.52400024 467.93426025 685.52400024 467.93426025 686.3671875 469.37109375 C687.09591064 470.6075061 687.09591064 470.6075061 687.83935547 471.86889648 C689 474 689 474 690 477 C371.88 477 53.76 477 -274 477 C-272.57181199 472.71543596 -271.48701477 469.8089992 -269.26953125 466.078125 C-268.44787476 464.68424561 -268.44787476 464.68424561 -267.60961914 463.26220703 C-267.01656982 462.26817871 -266.42352051 461.27415039 -265.8125 460.25 C-264.53580222 458.08632451 -263.25978329 455.92224834 -261.984375 453.7578125 C-261.32501953 452.64180664 -260.66566406 451.52580078 -259.98632812 450.37597656 C-256.81074644 444.9787367 -253.6862344 439.55236 -250.5625 434.125 C-249.30341652 431.94008624 -248.04430177 429.75519051 -246.78515625 427.5703125 C-245.84760498 425.94270996 -245.84760498 425.94270996 -244.89111328 424.28222656 C-241.76319852 418.85340058 -238.63141552 413.42680719 -235.5 408 C-234.24998121 405.83334417 -232.99998122 403.6666775 -231.75 401.5 C-189.25 327.83333333 -146.75 254.16666667 -104.25 180.5 C-103.63116943 179.42733887 -103.01233887 178.35467773 -102.37475586 177.24951172 C-101.12564482 175.08442929 -99.87645871 172.91939018 -98.62719727 170.75439453 C-95.48797691 165.31384294 -92.35009437 159.87252784 -89.21484375 154.4296875 C-83.19252671 143.97793801 -77.15330663 133.53700452 -71.0625 123.125 C-65.98724877 114.44737759 -60.97741233 105.73394432 -56 97 C-50.4599827 87.27884383 -44.86625191 77.59105342 -39.21655273 67.93310547 C-33.07856591 57.43691336 -27.0085231 46.90186662 -20.93945312 36.36572266 C-18.91417962 32.8510675 -16.88712521 29.33744531 -14.859375 25.82421875 C-14.51877548 25.23406982 -14.17817596 24.6439209 -13.82725525 24.03588867 C-12.19230093 21.20307244 -10.55725345 18.37031 -8.92211914 15.53759766 C-5.93712167 10.36458596 -2.95763676 5.18870767 0 0 Z " fill="white" transform="translate(482,537)"/>
<path d="M0 0 C1.34166581 -0.00339833 1.34166581 -0.00339833 2.71043599 -0.00686532 C5.71461401 -0.01320677 8.71874693 -0.01237581 11.72293091 -0.0115509 C13.87499042 -0.01454264 16.0270494 -0.0179452 18.17910767 -0.02172852 C24.03553597 -0.03057949 29.89194966 -0.03290732 35.748384 -0.0335443 C39.41436127 -0.03425513 43.08033484 -0.03639027 46.74631119 -0.03904152 C59.55785609 -0.04830436 72.36939058 -0.05237596 85.18093872 -0.05158997 C97.08211958 -0.05099157 108.98325476 -0.06149391 120.88442409 -0.07733363 C131.12510574 -0.09047244 141.3657726 -0.09577109 151.6064626 -0.09513456 C157.7115744 -0.09488107 163.81664577 -0.09764795 169.92174911 -0.10831261 C175.68210055 -0.11809857 181.44237384 -0.11800196 187.20272827 -0.11079597 C189.29949179 -0.10976245 191.39626044 -0.11203818 193.49301529 -0.11815643 C211.68392003 -0.16772924 229.94717303 0.56395102 247.80154419 4.32121277 C249.35023193 4.64158508 249.35023193 4.64158508 250.9302063 4.96842957 C267.3287715 8.51573057 282.55958175 14.03314325 297.23904419 22.13371277 C298.30509888 22.70992371 299.37115356 23.28613464 300.46951294 23.87980652 C334.28053739 42.81922901 359.3767092 75.41475431 369.94656372 112.62443542 C370.65995178 115.28712291 371.33466027 117.95593377 371.98904419 120.63371277 C372.18780151 121.438974 372.38655884 122.24423523 372.59133911 123.07389832 C375.74381849 136.72293141 376.62151814 150.36169788 376.55154419 164.32121277 C376.54880997 165.46299988 376.54880997 165.46299988 376.54602051 166.62785339 C376.38023647 207.92805885 363.91303232 245.83841674 335.23904419 276.13371277 C334.368927 277.07988464 333.49880981 278.02605652 332.60232544 279.00090027 C312.53753176 300.34330608 286.51184894 311.04277785 259.23904419 320.13371277 C264.15160387 326.2123851 269.13702392 332.21387344 274.23904419 338.13371277 C278.53879706 343.12309958 282.74389847 348.17592456 286.89529419 353.28996277 C289.63206468 356.61057763 292.43007369 359.87418059 295.23904419 363.13371277 C298.7935758 367.25839481 302.30696562 371.40578989 305.73904419 375.63371277 C310.12617321 381.03447449 314.65127831 386.30838977 319.18826294 391.58293152 C325.4333174 398.8440228 331.63535569 406.13924706 337.67654419 413.57121277 C341.63412607 418.43500302 345.70446865 423.19252508 349.7973938 427.94206238 C353.5723881 432.33171627 357.2463288 436.79486048 360.89529419 441.28996277 C363.63206468 444.61057763 366.43007369 447.87418059 369.23904419 451.13371277 C372.7935758 455.25839481 376.30696562 459.40578989 379.73904419 463.63371277 C383.73836566 468.55988428 387.84821536 473.3829887 391.99099731 478.18840027 C392.94446131 479.2945725 393.89633526 480.40211763 394.84646606 481.51115417 C395.7955612 482.61698977 396.75023699 483.71805434 397.70974731 484.81486511 C401.23904419 488.91128177 401.23904419 488.91128177 401.23904419 491.13371277 C385.96642957 491.53233632 370.69405528 491.83133307 355.41739464 492.01451969 C348.32231282 492.10187587 341.23047759 492.22074907 334.13748169 492.41618347 C327.94869956 492.58662138 321.76226863 492.69552343 315.57120478 492.73321718 C312.29666076 492.75523453 309.0303372 492.81534725 305.7575798 492.93112373 C284.29972039 493.65958843 284.29972039 493.65958843 277.66635132 487.52381897 C274.55920713 484.05782752 272.0432838 480.34370503 269.64932632 476.36083794 C267.2820533 472.62242759 264.4032647 469.31945008 261.55154419 465.94621277 C257.51127252 460.99318488 253.54313985 455.98767438 249.61404419 450.94621277 C245.65372761 445.86479556 241.55693502 440.92576793 237.36795044 436.03190613 C233.52606439 431.52302597 229.86051172 426.89051308 226.21902466 422.21916199 C222.76700467 417.79314848 219.24178292 413.43414148 215.67654419 409.09855652 C208.56713417 400.45105298 201.49360371 391.77807972 194.61404419 382.94621277 C190.6538735 377.86468547 186.55692961 372.9257616 182.36795044 368.03190613 C178.52674107 363.52382013 174.86128879 358.89251254 171.22122192 354.22135925 C168.45718427 350.67646987 165.65669983 347.16869935 162.80154419 343.69621277 C154.0963633 333.09256158 145.61730187 322.3945976 137.51712036 311.31877136 C133.68893128 306.08759477 129.8109421 300.90090114 125.86404419 295.75871277 C125.33875122 295.07422058 124.81345825 294.38972839 124.27224731 293.68449402 C123.17702691 292.25846697 122.08147888 290.8326915 120.98562622 289.40715027 C112.37675716 278.20142078 103.80484503 266.96676973 95.36404419 255.63371277 C94.77502319 254.85076843 94.1860022 254.0678241 93.57913208 253.26115417 C93.0363562 252.52816101 92.49358032 251.79516785 91.93435669 251.03996277 C91.46014282 250.40381042 90.98592896 249.76765808 90.49734497 249.11222839 C89.0755473 246.876635 88.19498599 244.59925801 87.23904419 242.13371277 C87.86335831 242.13132442 88.48767242 242.12893606 89.13090515 242.12647533 C104.39166162 242.06708302 119.65224518 241.99138075 134.91282654 241.89799786 C142.29303551 241.85322135 149.67319817 241.81376606 157.05349731 241.78727722 C163.49360122 241.76414888 169.93355632 241.73058881 176.37354183 241.68501121 C179.77673916 241.66127662 183.17979094 241.64241966 186.58306885 241.63609886 C212.98344722 241.56884361 238.75406252 239.65822069 258.95779419 220.47746277 C274.6734539 204.33123704 279.58884374 183.99752932 279.39138794 162.03605652 C278.5852559 141.38667418 272.09669137 121.88966092 256.79421997 107.50187683 C211.5678359 67.71401869 95.68406812 87.35182406 66.23904419 87.13371277 C66.23904419 220.45371277 66.23904419 353.77371277 66.23904419 491.13371277 C34.22904419 491.13371277 2.21904419 491.13371277 -30.76095581 491.13371277 C-30.86020008 401.68205112 -30.86020008 401.68205112 -30.88798523 357.37576294 C-30.8883994 356.71583855 -30.88881357 356.05591415 -30.88924029 355.37599205 C-30.89821909 341.03393372 -30.90652963 326.69187508 -30.9141518 312.34981597 C-30.9178938 305.3164371 -30.92178346 298.28305831 -30.92575073 291.24967957 C-30.92614301 290.54977517 -30.92653529 289.84987078 -30.92693945 289.12875717 C-30.93972267 266.44430456 -30.96225599 243.75987438 -30.98984747 221.07543535 C-31.01895307 197.1026128 -31.03694464 173.12980492 -31.04322129 149.1569652 C-31.0473406 134.7956818 -31.06035796 120.43446279 -31.08470521 106.07319921 C-31.1005453 96.22932332 -31.10536008 86.38548079 -31.10145994 76.54159308 C-31.09953572 70.85956129 -31.10251563 65.17764211 -31.11857224 59.49563026 C-31.13316537 54.2935606 -31.13391186 49.09167936 -31.1236525 43.88960104 C-31.12238439 42.00788834 -31.12619482 40.1261639 -31.13560536 38.2444743 C-31.24079478 15.91232329 -31.24079478 15.91232329 -22.72970581 6.86027527 C-15.94382014 0.90916125 -8.73908651 -0.01616634 0 0 Z " fill="white" transform="translate(2462.760955810547,164.8662872314453)"/>
<path d="M0 0 C0.68288086 0.22768066 1.36576172 0.45536133 2.06933594 0.68994141 C33.05049697 11.19732485 60.44442499 28.46312426 84 51 C84.55155762 51.51900879 85.10311523 52.03801758 85.67138672 52.57275391 C95.23905547 61.60603665 103.33262774 71.31825802 111 82 C111.65645508 82.8974292 111.65645508 82.8974292 112.32617188 83.81298828 C132.99136544 112.23971905 145.23210302 146.26606213 151.75 180.5625 C152.04825684 182.12061401 152.04825684 182.12061401 152.35253906 183.71020508 C155.63163441 201.96036737 156.37627712 220.11758006 156.3125 238.625 C156.30976578 240.27542801 156.30976578 240.27542801 156.30697632 241.959198 C156.26179565 258.16669601 155.81837307 274.00240404 153 290 C152.83371094 291.00530762 152.66742187 292.01061523 152.49609375 293.04638672 C145.2298981 336.27352289 127.82793375 377.69697184 99 411 C98.30648437 411.804375 97.61296875 412.60875 96.8984375 413.4375 C53.5054716 462.66879222 -7.49342896 487.43220949 -72.25390625 491.65234375 C-116.66020385 494.15816889 -160.88564908 488.40042377 -202 471 C-203.10214844 470.534729 -203.10214844 470.534729 -204.2265625 470.06005859 C-227.30725031 460.14060844 -248.4029223 445.97358943 -266.44287109 428.50585938 C-267.54131636 427.44358117 -268.64646921 426.38821763 -269.75634766 425.33789062 C-312.55531327 384.7784712 -335.49217021 326.14290638 -340 268 C-340.05639648 267.29037109 -340.11279297 266.58074219 -340.17089844 265.84960938 C-344.26184132 211.86852868 -336.77643788 156.10825924 -311 108 C-310.62117676 107.2771582 -310.24235352 106.55431641 -309.85205078 105.80957031 C-304.08541823 94.82438335 -297.65196722 84.76295513 -290 75 C-289.27296875 74.06027344 -288.5459375 73.12054688 -287.796875 72.15234375 C-283.41095163 66.63745122 -278.71967925 61.42047314 -273.9375 56.25 C-273.37184326 55.63576172 -272.80618652 55.02152344 -272.22338867 54.38867188 C-236.05532056 15.77885568 -183.52033139 -5.15857095 -132 -12 C-131.14148437 -12.11714355 -130.28296875 -12.23428711 -129.3984375 -12.35498047 C-86.42266053 -17.95147774 -41.01544307 -13.7947947 0 0 Z M-196 112 C-196.51014648 112.46631836 -197.02029297 112.93263672 -197.54589844 113.41308594 C-221.45950864 135.50701749 -235.22153518 165.51166632 -242 197 C-242.16371094 197.72864258 -242.32742187 198.45728516 -242.49609375 199.20800781 C-247.88382785 224.35447752 -247.55955568 254.92285521 -242 280 C-241.82307617 280.83144531 -241.64615234 281.66289062 -241.46386719 282.51953125 C-233.07767275 321.16265172 -212.6168439 357.26238978 -179.00708008 379.26367188 C-158.73096564 392.17692341 -137.74770248 399.38140535 -114 403 C-113.01386719 403.15210938 -112.02773437 403.30421875 -111.01171875 403.4609375 C-72.43759411 408.01354551 -30.44335264 398.89415443 0.6875 375.1875 C2.82589637 373.49743992 4.9204876 371.76185359 7 370 C7.54253418 369.54254395 8.08506836 369.08508789 8.64404297 368.61376953 C40.68849784 341.23169355 57.02363901 300.19275648 60.8190918 258.8671875 C61.21947505 252.52157226 61.24483758 246.16858148 61.25 239.8125 C61.25067474 239.06289001 61.25134949 238.31328003 61.25204468 237.54095459 C61.19822736 199.71089932 52.17179266 160.04885598 28 130 C27.28070312 129.07960938 26.56140625 128.15921875 25.8203125 127.2109375 C1.92463995 97.19664984 -32.64195728 79.81041913 -70.36157227 74.67871094 C-115.73584332 69.55292022 -162.06158665 80.64737052 -196 112 Z " fill="white" transform="translate(3245,168)"/>
<path d="M0 0 C1.53793968 -0.01925285 1.53793968 -0.01925285 3.10694885 -0.03889465 C4.21110641 -0.04628159 5.31526398 -0.05366852 6.45288086 -0.0612793 C8.16984413 -0.07338692 8.16984413 -0.07338692 9.92149353 -0.08573914 C12.34657279 -0.09956903 14.77167142 -0.11029608 17.19677734 -0.11816406 C19.66493472 -0.12966194 22.13306766 -0.15007862 24.60107422 -0.1796875 C28.17684751 -0.22258432 31.75188142 -0.23856658 35.32788086 -0.2487793 C36.4178688 -0.26628738 37.50785675 -0.28379547 38.63087463 -0.30183411 C47.48731756 -0.27709556 56.06374871 1.19465062 62.79272461 7.36450195 C70.57554695 16.54718306 70.41336297 25.96369132 70.30932617 37.44677734 C70.30809942 39.22005141 70.3086372 40.99332742 70.3107872 42.76660061 C70.3116867 47.49630959 70.28857874 52.22561012 70.26034546 56.95522308 C70.2374903 61.40054041 70.23648892 65.84576063 70.23364258 70.2911377 C70.21269041 83.27397944 70.15684545 96.25674592 70.10522461 109.23950195 C70.02272461 138.25887695 69.94022461 167.27825195 69.85522461 197.17700195 C146.41522461 197.17700195 222.97522461 197.17700195 301.85522461 197.17700195 C301.65734193 139.37634823 301.65734193 139.37634823 301.40478516 81.57592773 C301.38220215 70.38574219 301.38220215 70.38574219 301.37800598 65.14376831 C301.37335581 61.48988604 301.35465147 57.83636859 301.3273468 54.18258667 C301.29292947 49.5148449 301.28279096 44.84762997 301.28986323 40.17977309 C301.28838544 38.47114095 301.27854191 36.76248949 301.25914896 35.05396676 C301.14784856 24.76644679 301.5242599 16.05444454 308.78660107 8.04763985 C315.55656907 1.31670549 323.42304344 -0.15455189 332.72473145 -0.23983765 C334.35166931 -0.23072861 334.35166931 -0.23072861 336.01147461 -0.22143555 C337.1537854 -0.22430573 338.29609619 -0.2271759 339.47302246 -0.23013306 C341.87663268 -0.23216514 344.28025976 -0.22669551 346.68383789 -0.21411133 C350.34421074 -0.19804639 354.00347949 -0.21399022 357.66381836 -0.2331543 C360.00887286 -0.23117171 362.35392668 -0.22732773 364.69897461 -0.22143555 C365.78359985 -0.22750824 366.8682251 -0.23358093 367.98571777 -0.23983765 C377.67340576 -0.15101271 384.98454234 1.54324654 392.12866211 8.2746582 C397.88022236 14.61178454 399.00765722 20.69246417 398.97827244 29.00935745 C398.97942628 29.80750846 398.98058013 30.60565947 398.98176894 31.42799687 C398.98442882 34.11903115 398.97991856 36.81000634 398.97547913 39.5010376 C398.97591496 41.44314613 398.97679008 43.38525461 398.97806829 45.32736278 C398.98031094 50.67707254 398.97629508 56.02676239 398.97129023 61.37646961 C398.96698264 67.14059767 398.96843238 72.90472455 398.9691925 78.66885376 C398.96971754 88.6599072 398.96657283 98.65095412 398.96095467 108.64200592 C398.95283695 123.08749454 398.95022417 137.53298 398.94896667 151.97847065 C398.94677658 175.41379017 398.94012623 198.8491062 398.93066406 222.28442383 C398.92148158 245.05330385 398.91439701 267.82218295 398.91015625 290.59106445 C398.91002472 291.29274463 398.9098932 291.9944248 398.90975769 292.71736801 C398.90843918 299.76384749 398.90716336 306.81032697 398.90591883 313.85680647 C398.90338253 328.21164625 398.90056127 342.56648598 398.89756775 356.92132568 C398.89729302 358.23974774 398.8970183 359.55816981 398.89673524 360.91654405 C398.88756252 404.33669833 398.87121866 447.75684964 398.85522461 491.17700195 C366.84522461 491.17700195 334.83522461 491.17700195 301.85522461 491.17700195 C301.85522461 423.85700195 301.85522461 356.53700195 301.85522461 287.17700195 C225.29522461 287.17700195 148.73522461 287.17700195 69.85522461 287.17700195 C69.85522461 354.49700195 69.85522461 421.81700195 69.85522461 491.17700195 C37.84522461 491.17700195 5.83522461 491.17700195 -27.14477539 491.17700195 C-27.27710109 401.53397699 -27.27710109 401.53397699 -27.31414795 357.13304138 C-27.31470018 356.47170725 -27.31525241 355.81037312 -27.31582137 355.12899856 C-27.3277931 340.75630732 -27.33887381 326.38361552 -27.34903671 312.01092288 C-27.35402604 304.96252268 -27.35921226 297.91412264 -27.36450195 290.86572266 C-27.36502499 290.16432342 -27.36554803 289.46292419 -27.36608691 288.74027043 C-27.38313125 266.00730672 -27.4131757 243.2743828 -27.44996427 220.54144319 C-27.48877162 196.51739271 -27.51276046 172.49336828 -27.52112937 148.46928734 C-27.52662181 134.07727276 -27.54397839 119.68537238 -27.57644126 105.29339295 C-27.59756125 95.42848673 -27.60398112 85.56363967 -27.5987809 75.69871248 C-27.59621523 70.00449488 -27.60018866 64.31047706 -27.62159729 58.61629486 C-27.64105467 53.40307629 -27.64205046 48.19019195 -27.62837097 42.97695803 C-27.62668014 41.09120473 -27.63176107 39.20543062 -27.64430812 37.31971831 C-27.71904456 25.39384533 -27.2512484 15.86485695 -18.85571289 6.6809082 C-13.44845056 1.9279493 -7.07295286 0.07740886 0 0 Z " fill="white" transform="translate(3506.144775390625,164.822998046875)"/>
<path d="M0 0 C0.79596588 -0.00671722 1.59193176 -0.01343445 2.41201782 -0.02035522 C5.03084642 -0.03927797 7.64941793 -0.04325659 10.26831055 -0.04541016 C12.09905602 -0.05184235 13.92980048 -0.05857102 15.76054382 -0.06558228 C19.59445579 -0.07754094 23.42827774 -0.08126458 27.26220703 -0.08007812 C32.15792815 -0.07987508 37.05306783 -0.10716817 41.94865131 -0.14162254 C45.72951369 -0.16393814 49.5102372 -0.16791423 53.29115868 -0.16685867 C55.09515574 -0.16920796 56.89915702 -0.17799336 58.70308876 -0.19352341 C76.8991071 -0.33550142 76.8991071 -0.33550142 83.8425293 4.29052734 C84.41158997 4.66686813 84.98065063 5.04320892 85.56695557 5.43095398 C89.39882882 8.29457959 91.3591396 11.47010842 93.4050293 15.72802734 C93.73470703 16.41300293 94.06438477 17.09797852 94.40405273 17.80371094 C99.1762513 27.88385082 103.49687338 38.17674116 107.8913269 48.42549133 C111.60765793 57.08626749 115.37172366 65.72625918 119.13293457 74.36761475 C120.85173026 78.31691936 122.56930437 82.26675476 124.28689575 86.21658325 C125.60106575 89.23867505 126.91538685 92.2607011 128.22973633 95.28271484 C132.02070055 103.99934167 135.81052221 112.71646523 139.60040283 121.43356323 C140.84496968 124.29614037 142.08959027 127.15869414 143.33422852 130.02124023 C147.11311567 138.71235724 150.89178822 147.40356729 154.66952515 156.09518433 C162.88522837 174.99740081 171.10380849 193.89833012 179.3425293 212.79052734 C188.00866361 232.66282579 196.65228173 252.54489081 205.29418945 272.42773438 C209.0605508 281.09301188 212.82808994 289.75777729 216.59555054 298.4225769 C218.67792601 303.21187232 220.76022368 308.00120156 222.8425293 312.79052734 C223.67586226 314.70719417 224.50919559 316.62386084 225.3425293 318.54052734 C227.00919596 322.37386068 228.67586263 326.20719401 230.3425293 330.04052734 C230.96125664 331.46359947 230.96125664 331.46359947 231.59248352 332.91542053 C232.42597093 334.83244259 233.25945685 336.7494653 234.09294128 338.66648865 C236.17390507 343.45272313 238.25489456 348.23894642 240.3359375 353.02514648 C244.11424619 361.71496523 247.89235475 370.40487073 251.66952515 379.09518433 C259.5427941 397.20954777 267.41732564 415.32333666 275.31243896 433.42819214 C277.36756503 438.14127068 279.42182543 442.85472664 281.47613525 447.56816101 C283.49084827 452.19048848 285.50637926 456.81245784 287.52270508 461.43408203 C289.86111609 466.79428087 292.19760149 472.15531584 294.53295898 477.5168457 C295.44425071 479.60811427 296.35619248 481.69909971 297.26879883 483.78979492 C298.53594552 486.69295428 299.80083384 489.59708738 301.06518555 492.50146484 C301.44864639 493.37858124 301.83210724 494.25569763 302.22718811 495.15939331 C302.74653175 496.3542485 302.74653175 496.3542485 303.27636719 497.57324219 C303.58038956 498.27057465 303.88441193 498.9679071 304.19764709 499.68637085 C304.8425293 501.29052734 304.8425293 501.29052734 304.8425293 502.29052734 C269.5325293 502.29052734 234.2225293 502.29052734 197.8425293 502.29052734 C178.28929736 456.28292278 178.28929736 456.28292278 172.2175293 441.35302734 C171.58368217 439.80018377 170.94956424 438.24745071 170.31518555 436.69482422 C169.42218647 434.50917451 168.52935341 432.32346594 167.63900757 430.13673401 C164.39730247 422.17824755 161.11665548 414.23571415 157.8425293 406.29052734 C157.27691756 406.29274796 156.71130583 406.29496857 156.12855434 406.29725647 C142.3479864 406.34860551 128.56801831 406.35518237 114.78740597 406.31387329 C108.12295851 406.29524322 101.45934193 406.29137126 94.79492188 406.32128906 C88.36251094 406.34962135 81.93122577 406.33910597 75.49887276 406.30172729 C73.04571326 406.29428445 70.5924701 406.30080715 68.13938713 406.32156372 C64.70054697 406.34826845 61.26535405 406.32518432 57.82666016 406.29052734 C56.81389511 406.30993881 55.80113007 406.32935028 54.75767517 406.34934998 C50.67296057 406.26531984 47.93785035 406.18345834 44.70141792 403.54504395 C42.93067253 401.53519001 41.37911914 399.48193289 39.8425293 397.29052734 C38.1817757 395.45183586 36.51576022 393.61787164 34.8425293 391.79052734 C31.40988169 388.02702213 28.0269792 384.22923384 24.6862793 380.38427734 C21.58492695 376.86240265 18.40739597 373.40975713 15.24487305 369.94287109 C13.27311085 367.76591739 11.32887592 365.5721406 9.4050293 363.35302734 C6.44369419 359.94364154 3.40100443 356.61258424 0.3425293 353.29052734 C-3.30161399 349.33190549 -6.89660788 345.33875974 -10.4230957 341.27490234 C-12.43845833 338.969037 -14.48300946 336.69113603 -16.5324707 334.41552734 C-17.28270508 333.58150391 -18.03293945 332.74748047 -18.8059082 331.88818359 C-20.42769766 330.09667198 -22.05848224 328.31327636 -23.6965332 326.53662109 C-24.50864258 325.65103516 -25.32075195 324.76544922 -26.1574707 323.85302734 C-26.8999707 323.04994141 -27.6424707 322.24685547 -28.4074707 321.41943359 C-30.1574707 319.29052734 -30.1574707 319.29052734 -31.1574707 316.29052734 C19.3325293 316.29052734 69.8225293 316.29052734 121.8425293 316.29052734 C116.2325293 302.76052734 110.6225293 289.23052734 104.8425293 275.29052734 C92.80086263 246.24886068 80.75919596 217.20719401 68.7175293 188.16552734 C68.19168999 186.89733154 68.19168999 186.89733154 67.65522766 185.60351562 C66.9462238 183.89355855 66.23722927 182.18359761 65.52824402 180.47363281 C63.76774586 176.22761113 62.00709064 171.98165471 60.24609375 167.73583984 C56.93518777 159.75267504 53.62591116 151.76884536 50.3218689 143.78283691 C48.76635572 140.02335664 47.20999236 136.2642286 45.65356445 132.50512695 C44.91404474 130.71835604 44.17493858 128.9314139 43.4362793 127.14428711 C42.40999327 124.66134466 41.3822639 122.179004 40.35424805 119.69677734 C39.9084565 118.61662354 39.9084565 118.61662354 39.45365906 117.51464844 C37.33382133 112.40173621 35.11030594 107.33946477 32.8425293 102.29052734 C21.58080224 129.11269238 10.41153093 155.971508 -0.67973328 182.86457825 C-4.70220556 192.61561219 -8.74064926 202.36000074 -12.7824707 212.10302734 C-13.12964142 212.93997131 -13.47681213 213.77691528 -13.83450317 214.63922119 C-15.57771168 218.84159069 -17.32113923 223.04386926 -19.06469727 227.24609375 C-21.17706714 232.33743095 -23.28849047 237.42916032 -25.3996582 242.52099609 C-25.75064072 243.36749222 -26.10162323 244.21398834 -26.46324158 245.08613586 C-28.23890743 249.36877089 -30.01436607 253.65149169 -31.78955078 257.93432617 C-34.94575024 265.54845899 -38.10309736 273.16210076 -41.26794434 280.77264404 C-54.68851268 313.04553831 -67.92534008 345.3929503 -81.02758789 377.79638672 C-88.53998228 396.37486467 -96.18198325 414.89733812 -103.87780762 433.40054321 C-106.50097385 439.70807372 -109.11785507 446.01818694 -111.73168945 452.32958984 C-112.10928406 453.24115845 -112.48687866 454.15272705 -112.87591553 455.09191895 C-115.0690486 460.38643764 -115.0690486 460.38643764 -117.26141357 465.68127441 C-119.55454777 471.22000957 -121.85347436 476.75630217 -124.1574707 482.29052734 C-124.52217468 483.16777466 -124.88687866 484.04502197 -125.26263428 484.94885254 C-126.36936199 487.60817187 -127.47969982 490.26595549 -128.59106445 492.92333984 C-128.93363785 493.74744354 -129.27621124 494.57154724 -129.62916565 495.42062378 C-132.04283017 501.17588681 -132.04283017 501.17588681 -133.1574707 502.29052734 C-134.52355397 502.38587948 -135.89452526 502.41241405 -137.26393127 502.41078186 C-138.14879211 502.41215652 -139.03365295 502.41353119 -139.94532776 502.41494751 C-140.92356003 502.41135223 -141.9017923 502.40775696 -142.90966797 502.40405273 C-143.9339389 502.40419876 -144.95820984 502.40434479 -146.01351929 502.40449524 C-149.416993 502.40379563 -152.82041274 502.39600098 -156.22387695 502.38818359 C-158.57657339 502.38631959 -160.9292702 502.3848956 -163.28196716 502.38389587 C-169.48803775 502.38006934 -175.69408511 502.3702379 -181.90014648 502.35919189 C-188.22745448 502.34898069 -194.55476622 502.34439888 -200.88208008 502.33935547 C-213.30722052 502.32861575 -225.73234368 502.3115377 -238.1574707 502.29052734 C-237.60426282 499.20398453 -236.93381912 496.44357427 -235.66137695 493.578125 C-235.35526993 492.88197083 -235.0491629 492.18581665 -234.73377991 491.46856689 C-234.39922287 490.72145447 -234.06466583 489.97434204 -233.7199707 489.20458984 C-233.3682933 488.40817078 -233.01661591 487.61175171 -232.65428162 486.79119873 C-231.89256657 485.06772855 -231.12855919 483.34527008 -230.36251831 481.62371826 C-229.13876454 478.87348762 -227.92085817 476.12073604 -226.70458984 473.3671875 C-225.44171798 470.50818142 -224.17853733 467.64931752 -222.91358948 464.79122925 C-218.7716739 455.43148833 -214.67883468 446.05070819 -210.5949707 436.66552734 C-209.89191247 435.05107769 -209.18878723 433.43665722 -208.4855957 431.82226562 C-207.07893227 428.59271976 -205.67253966 425.36305619 -204.26635742 422.13330078 C-200.37850266 413.20436628 -196.48561627 404.27762375 -192.59368896 395.35046387 C-191.53028347 392.91122756 -190.46691081 390.47197693 -189.40356445 388.03271484 C-189.05273804 387.22793701 -188.70191162 386.42315918 -188.3404541 385.59399414 C-186.22447674 380.73962164 -184.10963225 375.88475736 -181.99569702 371.02949524 C-174.32722119 353.41680165 -166.6371875 335.81393948 -158.9074707 318.22802734 C-153.25285518 305.36294674 -147.62636608 292.48665802 -142.04785156 279.58837891 C-137.70368694 269.54498914 -133.34179205 259.50940981 -128.9699707 249.47802734 C-128.6151059 248.6637326 -128.26024109 247.84943787 -127.8946228 247.01046753 C-121.8736133 233.19778351 -115.81804093 219.40041338 -109.75506592 205.60610962 C-104.48532331 193.61469921 -99.2473881 181.61040973 -94.04785156 169.58837891 C-89.70368694 159.54498914 -85.34179205 149.50940981 -80.9699707 139.47802734 C-80.6151059 138.6637326 -80.26024109 137.84943787 -79.8946228 137.01046753 C-73.87433626 123.19944206 -67.82020675 109.40340712 -61.75708008 95.61114502 C-56.96334882 84.70515033 -52.19626003 73.78840668 -47.4699707 62.85302734 C-45.92300867 59.28491135 -44.37525824 55.71713814 -42.82739258 52.14941406 C-41.62837961 49.38234339 -40.43556411 46.61266805 -39.24536133 43.84179688 C-37.57474785 39.95349158 -35.89323045 36.07004515 -34.20541382 32.18917847 C-33.55823017 30.69597221 -32.91473727 29.20115983 -32.27529907 27.70462036 C-22.92603888 5.83836889 -22.92603888 5.83836889 -11.47981262 1.2071228 C-7.60587289 0.13834793 -3.98437914 -0.00487754 0 0 Z " fill="white" transform="translate(1529.157470703125,153.70947265625)"/>
<path d="M0 0 C1.1943869 -0.01029488 1.1943869 -0.01029488 2.41290283 -0.02079773 C5.02097879 -0.03896142 7.6284472 -0.03524335 10.23657227 -0.02954102 C12.06446018 -0.03410778 13.89234637 -0.03941483 15.7202301 -0.04542542 C19.54223629 -0.05433601 23.3640333 -0.05195678 27.18603516 -0.04199219 C32.06603801 -0.03050433 36.94531705 -0.05072162 41.82522488 -0.07990932 C45.59752431 -0.09831991 49.36965182 -0.09796922 53.14198494 -0.0922718 C54.94038979 -0.09211919 56.73880674 -0.09811382 58.5371685 -0.11056328 C76.82903538 -0.21936822 76.82903538 -0.21936822 83.61547852 4.40405273 C84.18438812 4.77511139 84.75329773 5.14617004 85.33944702 5.5284729 C89.34822119 8.48364179 91.45566614 12.16834582 93.49438477 16.58764648 C93.8291835 17.28522568 94.16398224 17.98280487 94.50892639 18.70152283 C98.38905833 26.86688936 101.97936622 35.16382078 105.55297852 43.46655273 C106.29298351 45.17631179 107.03347365 46.88586095 107.77441406 48.59521484 C109.30433918 52.12574974 110.83222404 55.6571567 112.35864258 59.18920898 C115.51843813 66.49629964 118.70471551 73.79181185 121.88983154 81.08789062 C130.97132324 101.89592723 140.01714053 122.71951393 149.06713867 143.54125977 C152.83350002 152.20653727 156.60103916 160.87130268 160.36849976 169.53610229 C162.45087523 174.32539771 164.5331729 179.11472695 166.61547852 183.90405273 C167.44881148 185.82071956 168.28214481 187.73738623 169.11547852 189.65405273 C170.78214518 193.48738607 172.44881185 197.3207194 174.11547852 201.15405273 C174.52796341 202.10276749 174.9404483 203.05148224 175.36543274 204.02894592 C176.19892015 205.94596798 177.03240607 207.86299069 177.8658905 209.78001404 C179.94685429 214.56624852 182.02784377 219.35247182 184.10888672 224.13867188 C187.88719541 232.82849062 191.66530397 241.51839612 195.44247437 250.20870972 C203.65817759 269.1109262 211.87675771 288.01185551 220.11547852 306.90405273 C228.78161283 326.77635119 237.42523095 346.6584162 246.06713867 366.54125977 C249.83385944 375.2073642 253.60177153 383.87295065 257.36959839 392.53857422 C258.61511301 395.40321209 259.8605473 398.26788488 261.10595703 401.13256836 C265.32151418 410.82903615 269.53800461 420.5250966 273.75610352 430.22045898 C278.31203829 440.69276175 282.86526278 451.16623944 287.4152832 461.64111328 C288.22052263 463.49483472 289.02586243 465.34851257 289.83129883 467.20214844 C292.15482026 472.54970591 294.47646652 477.89806916 296.79504395 483.24777222 C297.50380944 484.88242276 298.21319219 486.51680582 298.92321777 488.15090942 C299.890069 490.37647568 300.85465305 492.60301013 301.81860352 494.82983398 C302.10501709 495.48779968 302.39143066 496.14576538 302.68652344 496.82366943 C304.61547852 501.28979094 304.61547852 501.28979094 304.61547852 502.40405273 C269.30547852 502.40405273 233.99547852 502.40405273 197.61547852 502.40405273 C176.92204786 452.96974617 176.92204786 452.96974617 170.30297852 436.96655273 C169.26294584 434.4543456 168.22267486 431.94223726 167.18232727 429.43016052 C166.55870961 427.92412382 165.93529639 426.41800242 165.31217957 424.91175842 C162.7573584 418.73804464 160.18695176 412.57084643 157.61547852 406.40405273 C157.0568641 406.40719514 156.49824968 406.41033754 155.92270756 406.41357517 C142.30000377 406.48710004 128.67801177 406.51005531 115.05513096 406.47921085 C108.46692819 406.46580923 101.87960889 406.4689575 95.29150391 406.51025391 C88.93034054 406.54951348 82.57056898 406.54487381 76.20939445 406.51012993 C73.78578134 406.50454223 71.36207853 406.51462369 68.93860054 406.54081917 C49.95466609 406.73090485 49.95466609 406.73090485 44.19796753 403.46554565 C41.91626083 401.22017012 40.29441534 399.11466398 38.61547852 396.40405273 C37.4693718 395.07356156 36.30549898 393.75791583 35.11547852 392.46655273 C34.55602539 391.81557617 33.99657227 391.16459961 33.42016602 390.49389648 C29.88754429 386.40308994 26.23779736 382.41534542 22.61547852 378.40405273 C14.04374556 368.91186523 14.04374556 368.91186523 10.24047852 364.52905273 C7.25631166 361.10073081 4.19359368 357.74784473 1.11547852 354.40405273 C-2.52863864 350.44540624 -6.12365804 346.45228585 -9.65014648 342.38842773 C-11.66550911 340.08256239 -13.71006024 337.80466142 -15.75952148 335.52905273 C-16.88487305 334.27608398 -16.88487305 334.27608398 -18.03295898 332.99780273 C-19.64964427 331.21461498 -21.28073478 329.44441512 -22.92358398 327.68530273 C-23.73569336 326.80874023 -24.54780273 325.93217773 -25.38452148 325.02905273 C-26.12702148 324.23756836 -26.86952148 323.44608398 -27.63452148 322.63061523 C-29.38452148 320.40405273 -29.38452148 320.40405273 -30.38452148 316.40405273 C19.77547852 316.40405273 69.93547852 316.40405273 121.61547852 316.40405273 C112.26123815 293.60309184 102.89018894 270.81717196 93.396698 248.07510376 C89.66361461 239.12820762 85.9520419 230.17239246 82.24047852 221.21655273 C81.88639923 220.3622467 81.53231995 219.50794067 81.16751099 218.62774658 C79.36905751 214.28844735 77.57081881 209.94905917 75.77270508 205.60961914 C72.57410368 197.89065784 69.3734445 190.17254986 66.17294312 182.45437622 C65.12020129 179.91544282 64.06764167 177.37643395 63.01513672 174.83740234 C59.72787997 166.90766359 56.43934622 158.97846156 53.14639282 151.05108643 C51.60923035 147.35034195 50.07277854 143.64930261 48.53637695 139.94824219 C47.81130677 138.20216457 47.08589732 136.45622779 46.36010742 134.71044922 C45.34668386 132.27274827 44.33423207 129.83464772 43.32250977 127.39624023 C43.00577301 126.63305481 42.68903625 125.86986938 42.36270142 125.08355713 C39.75791966 118.78850515 37.23891077 112.46144275 34.75097656 106.11938477 C33.87140204 103.53345704 33.87140204 103.53345704 32.61547852 102.40405273 C32.18952393 103.43135498 31.76356934 104.45865723 31.32470703 105.51708984 C14.04663086 147.18774414 -3.23144531 188.85839844 -20.50952148 230.52905273 C-20.86016159 231.37471802 -21.2108017 232.2203833 -21.57206726 233.0916748 C-22.280237 234.7996058 -22.98841774 236.50753224 -23.6966095 238.2154541 C-25.47003625 242.49240578 -27.24327029 246.76943717 -29.01611328 251.04663086 C-32.17249675 258.66126302 -35.33005355 266.27539343 -38.49510193 273.88642883 C-51.324918 304.73868956 -63.95305776 335.6718733 -76.54122925 366.62341309 C-87.36566009 393.23743755 -98.24384286 419.82656911 -109.28295898 446.35229492 C-112.71750309 454.60616208 -116.14323456 462.86368803 -119.56845093 471.12142944 C-120.66315674 473.75993065 -121.75876385 476.39805612 -122.85449219 479.03613281 C-123.52729721 480.65745625 -124.20006912 482.27879342 -124.87280273 483.90014648 C-125.16997192 484.61502228 -125.46714111 485.32989807 -125.77331543 486.06643677 C-128.02426424 491.49502309 -130.20141165 496.94627814 -132.38452148 502.40405273 C-167.36452148 502.40405273 -202.34452148 502.40405273 -238.38452148 502.40405273 C-235.00893977 492.27730759 -235.00893977 492.27730759 -232.88061523 487.40405273 C-232.39657227 486.29094727 -231.9125293 485.1778418 -231.41381836 484.03100586 C-230.62587891 482.23566406 -230.62587891 482.23566406 -229.82202148 480.40405273 C-229.25597163 479.10665521 -228.69022586 477.80912497 -228.12475586 476.51147461 C-226.21759724 472.13958668 -224.30159045 467.77160227 -222.38452148 463.40405273 C-222.03270813 462.60225586 -221.68089478 461.80045898 -221.31842041 460.97436523 C-217.89562602 453.17397786 -214.47060274 445.37457068 -211.04272461 437.57641602 C-206.08696973 426.29990808 -201.165388 415.00949895 -196.27587891 403.70410156 C-191.93133517 393.66000254 -187.56916307 383.62366999 -183.19702148 373.59155273 C-182.84215668 372.777258 -182.48729187 371.96296326 -182.12167358 371.12399292 C-176.10066408 357.3113089 -170.04509172 343.51393877 -163.9821167 329.71963501 C-158.71237409 317.7282246 -153.47443888 305.72393512 -148.27490234 293.7019043 C-143.93073772 283.65851453 -139.56884283 273.6229352 -135.19702148 263.59155273 C-134.84215668 262.777258 -134.48729187 261.96296326 -134.12167358 261.12399292 C-128.10066408 247.3113089 -122.04509172 233.51393877 -115.9821167 219.71963501 C-110.71237409 207.7282246 -105.47443888 195.72393512 -100.27490234 183.7019043 C-95.93073772 173.65851453 -91.56884283 163.6229352 -87.19702148 153.59155273 C-86.84215668 152.777258 -86.48729187 151.96296326 -86.12167358 151.12399292 C-80.10066408 137.3113089 -74.04509172 123.51393877 -67.9821167 109.71963501 C-63.23509207 98.91768039 -58.50689599 88.10810982 -53.82202148 77.27905273 C-53.31944824 76.11817139 -52.816875 74.95729004 -52.29907227 73.76123047 C-49.96190749 68.36191639 -47.6255942 62.9622398 -45.29223633 57.5612793 C-43.40882467 53.2029186 -41.52097733 48.84649727 -39.63088989 44.49102783 C-38.89677259 42.79743351 -38.16403222 41.10324151 -37.43283081 39.40838623 C-23.3416595 6.75262991 -23.3416595 6.75262991 -14.58138943 2.53617764 C-9.60714051 0.56430668 -5.32553438 -0.0326969 0 0 Z " fill="white" transform="translate(2082.384521484375,153.595947265625)"/>
<path d="M0 0 C1.03167297 -0.00960754 2.06334595 -0.01921509 3.12628174 -0.02911377 C4.23155212 -0.03336365 5.33682251 -0.03761353 6.47558594 -0.04199219 C7.62355652 -0.04769226 8.7715271 -0.05339233 9.95428467 -0.05926514 C12.38178591 -0.06870169 14.80929989 -0.07524377 17.23681641 -0.07910156 C20.9325216 -0.08879522 24.62766769 -0.11982741 28.32324219 -0.15136719 C30.68652015 -0.15789901 33.04980207 -0.16314878 35.41308594 -0.16699219 C37.05884613 -0.18551239 37.05884613 -0.18551239 38.737854 -0.20440674 C48.41325914 -0.17660117 55.83429913 1.46018553 62.98339844 8.19628906 C68.93287786 14.96685049 69.86416966 22.3349283 69.83300877 31.0853014 C69.83416261 31.88122951 69.83531645 32.67715761 69.83650526 33.49720475 C69.83916035 36.17465582 69.83465885 38.85204722 69.83021545 41.52949524 C69.83065138 43.46421723 69.83152669 45.39893916 69.83280462 47.33366078 C69.83504534 52.65830809 69.83103404 57.98293536 69.82602656 63.30758011 C69.82171621 69.04646882 69.8231689 74.78535635 69.82392883 80.52424622 C69.8244537 90.46999187 69.82131081 100.41573098 69.81569099 110.36147499 C69.80757091 124.74142943 69.80496025 139.1213807 69.803703 153.50133719 C69.80151329 176.83072724 69.79486394 200.1601138 69.78540039 223.48950195 C69.77621694 246.15454083 69.76913284 268.81957878 69.76489258 291.48461914 C69.76476105 292.18317968 69.76462953 292.88174021 69.76449401 293.60146925 C69.7631755 300.61666231 69.76189969 307.63185537 69.76065515 314.64704845 C69.75021299 373.48507937 69.73173506 432.32310473 69.70996094 491.16113281 C37.69996094 491.16113281 5.68996094 491.16113281 -27.29003906 491.16113281 C-27.42251589 400.99944241 -27.42251589 400.99944241 -27.45941162 356.50280762 C-27.45996385 355.83851595 -27.46051608 355.17422429 -27.46108504 354.48980258 C-27.47305657 340.05307699 -27.48413732 325.61635084 -27.49430038 311.17962387 C-27.49928974 304.09989235 -27.50447595 297.02016099 -27.50976562 289.94042969 C-27.51028866 289.23591001 -27.5108117 288.53139033 -27.51135058 287.80552157 C-27.52839704 264.96856457 -27.55844306 242.13164715 -27.59522795 219.29471413 C-27.63402899 195.1622764 -27.65802275 171.02986353 -27.66639304 146.89739561 C-27.67188676 132.43935303 -27.68925024 117.98142407 -27.72170493 103.52341646 C-27.74281736 93.61459909 -27.74924651 83.70584062 -27.74404457 73.79700238 C-27.74147772 68.07658061 -27.74546573 62.35635766 -27.76686096 56.63597107 C-27.78630176 51.39998336 -27.78732495 46.16432851 -27.77363464 40.92832559 C-27.77194218 39.03316892 -27.77703716 37.13799161 -27.78957179 35.24287564 C-27.80561884 32.66714827 -27.79697697 30.09262328 -27.78223038 27.51691437 C-27.79273843 26.78067943 -27.80324649 26.04444449 -27.81407297 25.2858994 C-27.71899886 17.93996866 -24.47774586 11.34883961 -19.29003906 6.16113281 C-12.96982095 1.96745425 -7.6120374 0.05753965 0 0 Z " fill="white" transform="translate(4048.2900390625,164.8388671875)"/>
<path d="M0 0 C10.22393333 8.70415945 18.39386952 20.40082811 20.3515625 33.96484375 C21.27263004 51.28799865 18.38286392 66.08836285 6.7890625 79.71484375 C-4.60281647 91.5330655 -19.50385937 97.65743229 -35.8359375 98.15234375 C-52.26271997 97.87392371 -65.78325162 91.96161538 -77.8671875 80.94140625 C-88.61932735 69.81707695 -93.06153169 56.03364245 -93.01635742 40.90649414 C-92.67559762 25.11687994 -85.64752356 12.85226396 -74.6484375 1.96484375 C-54.13822179 -16.94498552 -21.63314013 -16.62369617 0 0 Z M-60.6484375 19.96484375 C-66.49213478 27.49134143 -70.31253381 34.95489007 -69.94921875 44.70703125 C-68.4671131 55.8324477 -63.33342955 63.80854317 -54.49609375 70.625 C-46.60096249 75.82275436 -38.97390635 76.81261365 -29.6484375 75.96484375 C-21.38238666 74.1926976 -15.14476436 69.24079145 -9.6484375 62.96484375 C-3.77994258 53.65062704 -1.83013771 43.99384221 -4.296875 33.1015625 C-7.7886939 23.50652166 -14.71627667 16.71052649 -23.6484375 11.96484375 C-36.60719519 6.84446859 -50.86771701 10.14362338 -60.6484375 19.96484375 Z " fill="white" transform="translate(2455.6484375,761.03515625)"/>
<path d="M0 0 C11.87320247 9.12380308 19.79906245 20.74868499 22.68359375 35.53515625 C24.77242254 51.8073904 20.76991513 66.0124259 11.33984375 79.34765625 C2.10419115 90.67934348 -11.42831226 96.92341848 -25.5 99.6875 C-41.6366368 101.12827114 -56.70237228 97.71969903 -69.85546875 87.859375 C-80.32872357 78.79628611 -88.96299587 67.20804175 -90.17700195 52.91625977 C-90.65693532 35.4914279 -88.42985241 21.9354591 -76.67578125 8.3046875 C-56.86068545 -12.53693602 -23.94518694 -16.64301693 0 0 Z M-50 16 C-50.69738281 16.42410156 -51.39476562 16.84820313 -52.11328125 17.28515625 C-59.52205305 22.2940999 -65.06860686 30.20497834 -67 39 C-68.23433186 48.98132551 -65.66290003 57.64376166 -59.875 65.8125 C-54.92604229 71.75124926 -47.62616457 76.47476709 -40 78 C-28.89559901 78.87876555 -20.72138112 77.18777231 -12.07421875 70.01953125 C-5.07622238 63.20603949 -0.95150369 54.92514067 -0.5625 45.1875 C-0.89860431 34.91046424 -4.38790911 27.55816253 -11.484375 20.16796875 C-19.26840481 13.45968219 -27.38170735 11.62969173 -37.421875 11.72265625 C-42.34789226 12.10447636 -45.83549135 13.41429927 -50 16 Z " fill="white" transform="translate(2052,759)"/>
<path d="M0 0 C68.50688648 0 68.50688648 0 84.8125 15.65234375 C96.61628008 28.32032915 98.65791471 43.07527704 98.13623047 59.69140625 C97.33091545 73.33846504 90.88936917 84.83461891 81 94 C58.30089616 112.04199287 26.76431435 106 0 106 C0 71.02 0 36.04 0 0 Z M23 21 C23 42.12 23 63.24 23 85 C46.05366316 86.44872257 46.05366316 86.44872257 65.375 78.875 C74.05194143 69.3716832 74.68716382 58.45619071 74.18359375 46.19677734 C73.56399601 38.7830267 70.49163709 32.01410343 65 27 C50.66682417 18.44670646 42.51162704 21 23 21 Z " fill="white" transform="translate(3989,751)"/>
<path d="M0 0 C68.6422629 0 68.6422629 0 84.74609375 15.53515625 C95.49413592 27.28908105 98.94666276 41.41788861 98.31640625 56.9921875 C97.38046963 71.18219434 91.47795419 84.31174457 81 94 C59.0256191 112.05615489 25.27973968 106 0 106 C0 71.02 0 36.04 0 0 Z M23 21 C23 42.12 23 63.24 23 85 C46.47852566 86.70016675 46.47852566 86.70016675 67 77 C74.66711322 67.49767351 74.73313813 56.66038741 74 45 C72.90869022 38.01194913 70.21798085 31.88168686 65 27 C51.20707209 18.24051024 41.3038179 21 23 21 Z " fill="white" transform="translate(1387,751)"/>
<path d="M0 0 C3.21491917 1.60745959 5.05070641 2.74563577 7.625 5.0625 C8.31851563 5.68253906 9.01203125 6.30257812 9.7265625 6.94140625 C10.85191406 7.96041016 10.85191406 7.96041016 12 9 C13.21816406 10.09634766 13.21816406 10.09634766 14.4609375 11.21484375 C16.16731426 12.75058284 17.87303343 14.28705287 19.578125 15.82421875 C24.04832179 19.84018586 28.57153121 23.79039496 33.15234375 27.6796875 C39.73004312 33.27174904 46.19074179 38.95264415 52.51074219 44.83496094 C58.51989538 50.42789572 64.69332421 55.74443684 71 61 C71.33 41.86 71.66 22.72 72 3 C79.92 3 87.84 3 96 3 C96 38.97 96 74.94 96 112 C92.1895365 110.09476825 90.00406118 108.32340956 86.9375 105.4375 C83.24636541 102.0046517 79.49589741 98.72061908 75.5625 95.5625 C71.0260327 91.90364231 66.741339 88.05131037 62.47851562 84.08398438 C59.26718772 81.1129881 55.97381211 78.30046168 52.5625 75.5625 C47.81752536 71.7473763 43.34669205 67.7099453 38.94165039 63.51196289 C34.15320334 58.99638833 29.20883021 55.16706417 24 51 C24 70.14 24 89.28 24 109 C16.08 109 8.16 109 0 109 C0 73.03 0 37.06 0 0 Z " fill="white" transform="translate(2493,748)"/>
<path d="M0 0 C3.84908683 1.92454342 6.13335457 3.78011505 9.25 6.6875 C12.48815511 9.68479616 15.72928552 12.67054609 19.0625 15.5625 C22.07073528 18.17701942 25.04130249 20.82951656 28 23.5 C31.62023723 26.76704335 35.26983565 29.99520776 38.94921875 33.1953125 C41.26088797 35.22958141 43.5353143 37.3022231 45.8125 39.375 C50.11286824 43.25984186 54.5422397 46.94566142 59.06640625 50.56640625 C63.13309882 53.93997412 67.05080991 57.48960881 71 61 C71.33 41.86 71.66 22.72 72 3 C79.92 3 87.84 3 96 3 C96 38.97 96 74.94 96 112 C91.919082 109.959541 88.83662429 107.46942979 85.4375 104.5 C84.81834717 103.96463623 84.19919434 103.42927246 83.5612793 102.87768555 C78.84635838 98.78405906 74.23996145 94.58215759 69.640625 90.359375 C67.00871196 88.00778406 64.31060491 85.77668738 61.5625 83.5625 C57.56775211 80.34056252 53.75452374 76.99338154 50 73.5 C45.40383903 69.22476056 40.67282954 65.18521605 35.765625 61.265625 C32.10306815 58.26522532 28.56317217 55.11777565 25 52 C24.67 70.81 24.34 89.62 24 109 C16.08 109 8.16 109 0 109 C0 73.03 0 37.06 0 0 Z " fill="white" transform="translate(2092,748)"/>
<path d="M0 0 C3.91502572 1.95751286 6.62337791 4.22757816 9.75 7.1875 C10.82488262 8.18948716 11.90040352 9.19079005 12.9765625 10.19140625 C13.49637695 10.67625488 14.01619141 11.16110352 14.55175781 11.66064453 C16.98934987 13.91496517 19.49975473 16.08277485 22.0078125 18.2578125 C24.36020635 20.31500399 26.68034966 22.40596915 29 24.5 C31.98062721 27.18983431 34.97245233 29.86310364 38 32.5 C41.89512811 35.89253093 45.72782763 39.35194201 49.5625 42.8125 C52.32330766 45.2901479 55.1146307 47.73027077 57.9140625 50.1640625 C61.28035988 53.12690851 64.58723222 56.15552169 67.8984375 59.1796875 C69.86723421 61.03676667 69.86723421 61.03676667 72 62 C72 42.53 72 23.06 72 3 C79.59 3 87.18 3 95 3 C95 38.97 95 74.94 95 112 C86.09489051 105.32116788 86.09489051 105.32116788 82.1875 101.6875 C78.7728108 98.56430866 75.29682358 95.58335264 71.6875 92.6875 C66.87334412 88.79679292 62.35075666 84.66999534 57.83666992 80.44213867 C53.65451895 76.54725906 49.29455886 72.93933094 44.8359375 69.36328125 C40.92429708 66.1035809 37.20929776 62.64889693 33.50195312 59.16015625 C30.42211419 56.26966752 27.31152006 53.64921605 24 51 C23.67 70.14 23.34 89.28 23 109 C15.41 109 7.82 109 0 109 C0 73.03 0 37.06 0 0 Z " fill="white" transform="translate(3091,748)"/>
<path d="M0 0 C26.4 0 52.8 0 80 0 C80 6.93 80 13.86 80 21 C61.19 21 42.38 21 23 21 C23 28.26 23 35.52 23 43 C39.5 43 56 43 73 43 C73 49.93 73 56.86 73 64 C56.5 64 40 64 23 64 C23 70.93 23 77.86 23 85 C41.81 85 60.62 85 80 85 C80 91.93 80 98.86 80 106 C53.6 106 27.2 106 0 106 C0 71.02 0 36.04 0 0 Z " fill="white" transform="translate(1287,751)"/>
<path d="M0 0 C-1.80981863 4.08237497 -4.41177288 7.57507443 -7 11.1875 C-7.45117188 11.82880859 -7.90234375 12.47011719 -8.3671875 13.13085938 C-11.75577278 17.87788639 -11.75577278 17.87788639 -14 19 C-16.3203125 17.890625 -16.3203125 17.890625 -19.125 16.25 C-29.12879407 10.59910191 -39.07668154 7.09162068 -50.6484375 9.56640625 C-55.65408329 11.05653547 -55.65408329 11.05653547 -59 15 C-59.16699232 18.12521833 -59.16699232 18.12521833 -59 21 C-51.30164984 25.47614499 -43.83158258 27.388017 -35.125 29 C-21.89321917 31.46572731 -7.97914652 34.29430644 0.33984375 45.86328125 C5.20230012 53.94430304 4.94410394 63.55177011 3.609375 72.66796875 C1.62706382 79.8474932 -3.28803379 85.6162217 -9.5 89.60546875 C-25.68742622 98.01996927 -43.71308581 97.33653623 -61 93 C-69.13406155 90.4238993 -77.4293278 86.51048869 -84 81 C-84.77441406 79.1340332 -84.77441406 79.1340332 -85 77 C-84.10375977 75.07714844 -84.10375977 75.07714844 -82.69140625 73.109375 C-81.94213867 72.04589844 -81.94213867 72.04589844 -81.17773438 70.9609375 C-80.64470703 70.23132813 -80.11167969 69.50171875 -79.5625 68.75 C-79.03333984 68.00492188 -78.50417969 67.25984375 -77.95898438 66.4921875 C-76.65039224 64.65308504 -75.33064217 62.82317932 -74 61 C-68.82939307 62.92768258 -64.01760827 65.50505286 -59.14648438 68.078125 C-49.73347393 72.90623371 -38.86725719 75.20856234 -28.42578125 72.27734375 C-25.2053915 70.80703642 -23.24309575 69.27169525 -20.875 66.625 C-19.80053382 63.97380206 -19.80053382 63.97380206 -20.25 60.9375 C-22.8320945 56.60326994 -26.335091 55.619082 -31 54 C-35.05316592 53.00187859 -39.13902787 52.27937097 -43.25 51.5625 C-71.5055185 46.22653502 -71.5055185 46.22653502 -79.625 34.69140625 C-84.077139 26.98869985 -85.33531557 19.30347497 -83.46875 10.4921875 C-80.85061483 2.09708016 -76.49905484 -3.44929151 -69 -8 C-46.15422625 -18.95345317 -20.14079213 -13.89852607 0 0 Z " fill="white" transform="translate(2692,763)"/>
<path d="M0 0 C7.92 0 15.84 0 24 0 C24.00410889 2.06813965 24.00821777 4.1362793 24.01245117 6.26708984 C24.02971838 13.13241797 24.07433557 19.99737746 24.13209057 26.86247826 C24.16624992 31.02118386 24.19145318 35.17952643 24.19555664 39.33837891 C24.19986355 43.35877272 24.2285217 47.37834914 24.27343178 51.39848709 C24.28633097 52.92527107 24.29074157 54.45215326 24.28615379 55.97898483 C24.26575114 64.83816143 24.59551053 72.58951557 30 80 C35.78052822 84.91959848 41.87553254 86.50713918 49.34375 86.3046875 C55.90823277 85.55170271 61.2803248 83.45290049 65.5 78.25 C71.23070264 70.32030681 70.33870612 60.0889773 70.4140625 50.78125 C70.43279991 49.31293684 70.45237519 47.84463416 70.4727478 46.37634277 C70.52380366 42.53615531 70.56357029 38.69593304 70.60089111 34.85559082 C70.64109846 30.92707904 70.69211396 26.99870872 70.7421875 23.0703125 C70.83863197 15.38029861 70.92213549 7.69022857 71 0 C78.59 0 86.18 0 94 0 C94.09083791 9.16309975 94.16402296 18.3258941 94.20724869 27.4893446 C94.22800844 31.74559114 94.25610982 36.00151021 94.30175781 40.25756836 C94.34563508 44.37490815 94.36922409 48.49193556 94.37950897 52.60949135 C94.38682606 54.17017844 94.40111157 55.73085096 94.42292023 57.29140282 C94.62099166 72.06998079 92.36887509 84.80235159 82 96 C70.83232318 105.65853131 56.30840011 108.52816711 41.875 107.875 C28.01916362 106.52510329 16.82359877 101.21930514 7.79296875 90.56640625 C1.88593573 82.11124134 -0.13186841 73.05509661 -0.11352539 62.89306641 C-0.11367142 62.20944031 -0.11381744 61.52581421 -0.1139679 60.82147217 C-0.11327608 58.58146901 -0.10551822 56.34155097 -0.09765625 54.1015625 C-0.09578947 52.54072108 -0.09436679 50.97987908 -0.09336853 49.41903687 C-0.08956383 45.3255652 -0.07975116 41.23212943 -0.06866455 37.13867188 C-0.05840628 32.9557341 -0.05386147 28.77279049 -0.04882812 24.58984375 C-0.03812694 16.39321092 -0.02054685 8.19661407 0 0 Z " fill="white" transform="translate(1503,751)"/>
<path d="M0 0 C7.92 0 15.84 0 24 0 C24.00410889 2.06813965 24.00821777 4.1362793 24.01245117 6.26708984 C24.02971838 13.13241797 24.07433557 19.99737746 24.13209057 26.86247826 C24.16624992 31.02118386 24.19145318 35.17952643 24.19555664 39.33837891 C24.19986355 43.35877272 24.2285217 47.37834914 24.27343178 51.39848709 C24.28633097 52.92527107 24.29074157 54.45215326 24.28615379 55.97898483 C24.26575114 64.83816143 24.59551053 72.58951557 30 80 C35.78456513 84.92303415 41.87023834 86.49276197 49.33984375 86.3125 C55.48643896 85.59043301 60.38120782 83.48102263 64.9375 79.3125 C70.42668896 70.49652985 70.46833282 61.57818051 70.51171875 51.46484375 C70.52859247 49.97553554 70.54674628 48.48624134 70.56611633 46.9969635 C70.61333072 43.1058083 70.64332367 39.21470991 70.66955566 35.32336426 C70.69950659 31.34111313 70.74598642 27.35905725 70.79101562 23.37695312 C70.87672326 15.58471629 70.9426812 7.79250685 71 0 C78.59 0 86.18 0 94 0 C94.09077532 9.31075437 94.16398755 18.62120942 94.20724869 27.9323082 C94.22802365 32.25696147 94.25615384 36.58129335 94.30175781 40.90576172 C94.34557953 45.08793496 94.36921276 49.26980127 94.37950897 53.45218658 C94.3868358 55.03881911 94.40114126 56.62543699 94.42292023 58.21193695 C94.61624526 72.89377221 92.19376241 84.82850549 82 96 C71.67922657 104.94467031 57.98928028 108.5183577 44.5234375 107.84765625 C29.68688084 106.72478836 17.98444201 102.61356744 8 91 C0.30373337 79.15484414 -0.29243559 67.49878478 -0.1953125 53.80859375 C-0.19157579 52.25204145 -0.18873193 50.69548678 -0.18673706 49.13893127 C-0.17915235 45.07011255 -0.1595491 41.00143982 -0.1373291 36.93267822 C-0.11675858 32.76959202 -0.10771153 28.6064819 -0.09765625 24.44335938 C-0.07629757 16.29549892 -0.04115842 8.14778452 0 0 Z " fill="white" transform="translate(2712,751)"/>
<path d="M0 0 C3.19355249 3.37922415 5.65810728 7.13890013 8.015625 11.1328125 C4.40292686 14.2562911 0.42773696 15.73626347 -3.984375 17.3828125 C-4.6959375 17.66382813 -5.4075 17.94484375 -6.140625 18.234375 C-9.84738537 19.63132574 -12.22023773 20.4730622 -15.984375 19.1328125 C-17.30078125 17.71484375 -17.30078125 17.71484375 -18.546875 15.9453125 C-22.96932952 10.45965919 -30.01342936 6.38400787 -36.984375 5.1328125 C-47.18523509 4.12429959 -55.85770769 6.21340248 -63.859375 12.7578125 C-69.39998264 18.05018503 -73.60878535 25.39792003 -74.22265625 33.13671875 C-74.46592399 44.80076681 -72.36951704 52.57433642 -64.27734375 61.15234375 C-57.21040753 67.25615408 -49.34010064 69.51661642 -40.1796875 69.40625 C-31.3718546 68.65252347 -24.34086649 64.06033831 -17.984375 58.1328125 C-16.95081373 56.82532297 -15.93974353 55.49848037 -14.984375 54.1328125 C-9.89850355 54.78156146 -5.43324223 56.26367907 -0.671875 58.0703125 C0.05580078 58.33521484 0.78347656 58.60011719 1.53320312 58.87304688 C6.89209517 60.88575283 6.89209517 60.88575283 8.015625 63.1328125 C-0.86058527 76.73961047 -12.56903286 86.92326893 -28.71191406 90.609375 C-45.61578376 94.04573715 -61.25874615 91.31404599 -75.984375 82.1328125 C-87.83176874 73.3852163 -94.99122875 61.9528805 -98.59765625 47.7109375 C-101.10324938 31.00698328 -97.19255558 16.4094718 -87.3125 2.8359375 C-77.70850531 -9.06644908 -64.7289758 -14.61428733 -50.109375 -17.6796875 C-30.55215733 -19.32661109 -14.28479438 -13.10295887 0 0 Z " fill="white" transform="translate(1712.984375,766.8671875)"/>
<path d="M0 0 C3.19355249 3.37922415 5.65810728 7.13890013 8.015625 11.1328125 C4.40292686 14.2562911 0.42773696 15.73626347 -3.984375 17.3828125 C-4.6959375 17.66382813 -5.4075 17.94484375 -6.140625 18.234375 C-9.84738537 19.63132574 -12.22023773 20.4730622 -15.984375 19.1328125 C-17.30078125 17.71484375 -17.30078125 17.71484375 -18.546875 15.9453125 C-22.96932952 10.45965919 -30.01342936 6.38400787 -36.984375 5.1328125 C-47.18523509 4.12429959 -55.85770769 6.21340248 -63.859375 12.7578125 C-69.39998264 18.05018503 -73.60878535 25.39792003 -74.22265625 33.13671875 C-74.46592399 44.80076681 -72.36951704 52.57433642 -64.27734375 61.15234375 C-57.21040753 67.25615408 -49.34010064 69.51661642 -40.1796875 69.40625 C-31.3718546 68.65252347 -24.34086649 64.06033831 -17.984375 58.1328125 C-16.95081373 56.82532297 -15.93974353 55.49848037 -14.984375 54.1328125 C-9.60696804 54.69848778 -5.09704108 56.01511808 -0.109375 58.0703125 C0.56609375 58.33521484 1.2415625 58.60011719 1.9375 58.87304688 C6.88708995 60.87574241 6.88708995 60.87574241 8.015625 63.1328125 C-2.13511079 78.06195317 -14.18796618 87.82916988 -32.20703125 91.59765625 C-34.12100529 91.87542982 -36.05449418 92.00626294 -37.984375 92.1328125 C-38.63148438 92.184375 -39.27859375 92.2359375 -39.9453125 92.2890625 C-55.59247776 92.98707731 -69.92032104 87.23929317 -81.734375 77.26171875 C-92.06657447 67.48559252 -98.09935131 54.85008571 -99.26953125 40.6796875 C-99.64413976 25.89079494 -95.51931246 12.41204956 -85.984375 0.9453125 C-76.05628281 -9.39922651 -62.70125686 -16.6193185 -48.25390625 -17.8359375 C-29.00557488 -18.10097476 -14.21907795 -13.04267942 0 0 Z " fill="white" transform="translate(2345.984375,766.8671875)"/>
<path d="M0 0 C4.54465109 4.33150163 9.32172762 9.19174536 11.33203125 15.22265625 C8.06459469 16.56442405 4.79256217 17.89459984 1.51953125 19.22265625 C0.59076172 19.60421875 -0.33800781 19.98578125 -1.29492188 20.37890625 C-2.18759766 20.73984375 -3.08027344 21.10078125 -4 21.47265625 C-4.82218018 21.8078125 -5.64436035 22.14296875 -6.49145508 22.48828125 C-8.66796875 23.22265625 -8.66796875 23.22265625 -11.66796875 23.22265625 C-13.10546875 21.68359375 -13.10546875 21.68359375 -14.66796875 19.59765625 C-19.41253996 13.90214753 -26.27805657 9.54124842 -33.66796875 8.22265625 C-44.35282961 7.34767552 -52.29046724 9.32176339 -60.58984375 16.19921875 C-67.55864934 22.98463472 -70.64822238 30.36387018 -71.04296875 40.03515625 C-70.85628824 49.38084917 -67.174296 57.51480559 -60.66796875 64.22265625 C-53.26850927 70.29885473 -46.0760177 72.74495595 -36.50390625 72.53515625 C-28.48251881 71.65125681 -21.54856159 67.62123328 -15.66796875 62.22265625 C-14.98734375 61.25328125 -14.30671875 60.28390625 -13.60546875 59.28515625 C-12.96609375 58.60453125 -12.32671875 57.92390625 -11.66796875 57.22265625 C-6.2820745 57.54540647 -1.71791853 59.13080441 3.20703125 61.16015625 C3.8825 61.42505859 4.55796875 61.68996094 5.25390625 61.96289062 C10.2034962 63.96558616 10.2034962 63.96558616 11.33203125 66.22265625 C1.18129546 81.15179692 -10.87155993 90.91901363 -28.890625 94.6875 C-30.80459904 94.96527357 -32.73808793 95.09610669 -34.66796875 95.22265625 C-35.31507813 95.27421875 -35.9621875 95.32578125 -36.62890625 95.37890625 C-52.08428486 96.06836552 -66.60592566 90.44935843 -78.28515625 80.53515625 C-88.41221484 70.7069289 -94.94675714 58.3320889 -95.87109375 44.09375 C-96.10980113 26.60843413 -90.8726379 12.85352019 -78.66796875 0.22265625 C-55.3525141 -19.26704268 -23.41713094 -19.63407263 0 0 Z " fill="white" transform="translate(3298.66796875,763.77734375)"/>
<path d="M0 0 C62.31654676 0 62.31654676 0 76 12 C77.94921875 14.55078125 77.94921875 14.55078125 79.6875 17.3125 C80.26886719 18.21613281 80.85023438 19.11976563 81.44921875 20.05078125 C86.14703853 28.98492215 86.51855031 40.27006113 84.3125 50.046875 C80.78578386 59.51022998 74.92893525 66.32878423 66 71 C56.37574743 74.94266931 47.4855633 75.50901311 37.1875 75.25 C30.1646875 75.12625 30.1646875 75.12625 23 75 C23 85.23 23 95.46 23 106 C15.41 106 7.82 106 0 106 C0 71.02 0 36.04 0 0 Z M23 21 C23 32.22 23 43.44 23 55 C26.815625 55.04125 30.63125 55.0825 34.5625 55.125 C35.75174072 55.14320801 36.94098145 55.16141602 38.16625977 55.18017578 C48.08959192 55.25437727 48.08959192 55.25437727 56.75 50.875 C60.35439407 46.26938535 62.4028624 41.81120812 61.9375 35.875 C60.3976878 29.5104429 57.3424754 25.69863682 52 22 C48.76248322 20.92082774 46.42248229 20.88574399 43.01953125 20.90234375 C41.97128174 20.90484131 40.92303223 20.90733887 39.84301758 20.90991211 C38.51294678 20.91901611 37.18287598 20.92812012 35.8125 20.9375 C31.584375 20.958125 27.35625 20.97875 23 21 Z " fill="white" transform="translate(3467,751)"/>
<path d="M0 0 C3.46512591 3.10931479 5.38122135 6.25331944 7.46875 10.3984375 C7.7855069 11.02088348 8.10226379 11.64332947 8.42861938 12.28463745 C9.1065833 13.61831697 9.78118241 14.95371139 10.45269775 16.29064941 C12.23089178 19.82962756 14.03448725 23.35563164 15.8359375 26.8828125 C16.1942868 27.58587524 16.55263611 28.28893799 16.92184448 29.01330566 C19.88682629 34.81639153 22.9711095 40.5473259 26.125 46.25 C31.16932388 55.38983446 35.98560648 64.63691254 40.75878906 73.92089844 C45.16467781 82.46453418 49.72662001 90.91201711 54.4453125 99.28710938 C54.91453125 100.13080078 55.38375 100.97449219 55.8671875 101.84375 C56.28081543 102.57787109 56.69444336 103.31199219 57.12060547 104.06835938 C58 106 58 106 58 109 C53.93846834 109.23272688 49.87864757 109.37454311 45.8125 109.5 C44.66201172 109.56703125 43.51152344 109.6340625 42.32617188 109.703125 C33.9785734 109.8966925 33.9785734 109.8966925 31.1472168 107.30224609 C29.8511349 105.24112738 28.89864288 103.25891004 28 101 C27.401875 99.88625 26.80375 98.7725 26.1875 97.625 C25 95 25 95 25 93 C8.83 93 -7.34 93 -24 93 C-24.66 94.98 -25.32 96.96 -26 99 C-27.65 102.3 -29.3 105.6 -31 109 C-39.58 109 -48.16 109 -57 109 C-55.61299608 104.83898824 -54.36920942 101.51954326 -52.3828125 97.71875 C-51.86477051 96.72391602 -51.34672852 95.72908203 -50.81298828 94.70410156 C-50.25595215 93.64674805 -49.69891602 92.58939453 -49.125 91.5 C-48.54347168 90.38850586 -47.96194336 89.27701172 -47.36279297 88.13183594 C-43.2173085 80.23663878 -38.96320067 72.40519588 -34.66259766 64.59375 C-30.47971637 56.96125237 -26.47806961 49.2403043 -22.5 41.5 C-7.12317208 11.58702658 -7.12317208 11.58702658 0 0 Z M0 47 C-1.83961674 50.78864975 -3.67062072 54.58139775 -5.5 58.375 C-6.02464844 59.45523438 -6.54929687 60.53546875 -7.08984375 61.6484375 C-7.58613281 62.6796875 -8.08242187 63.7109375 -8.59375 64.7734375 C-9.05458984 65.72653809 -9.51542969 66.67963867 -9.99023438 67.66162109 C-11.13214656 69.88150607 -11.13214656 69.88150607 -11 72 C-3.08 72 4.84 72 13 72 C10.8653125 67.483125 10.8653125 67.483125 8.6875 62.875 C8.24494873 61.93769043 7.80239746 61.00038086 7.34643555 60.03466797 C5.27859919 55.66442638 3.18479234 51.31302047 1 47 C0.67 47 0.34 47 0 47 Z " fill="white" transform="translate(1776,748)"/>
<path d="M0 0 C3.11864767 2.66347106 4.77900272 6.02311594 6.6328125 9.60546875 C6.98161469 10.26839432 7.33041687 10.93131989 7.68978882 11.61433411 C8.83991022 13.80278021 9.98234626 15.99514696 11.125 18.1875 C11.93363216 19.72883719 12.74288619 21.26984826 13.55273438 22.81054688 C15.22240403 25.98771159 16.88975534 29.16607669 18.55566406 32.34521484 C21.83418303 38.59568787 25.14891829 44.82677343 28.4659729 51.05685425 C29.50152054 53.0028574 30.53557793 54.94964455 31.5690918 56.89672852 C34.94679758 63.25994237 38.32973584 69.62025433 41.72579956 75.97369385 C43.39523391 79.09871452 45.06094772 82.22570957 46.72607422 85.35302734 C47.52566457 86.85262182 48.32690108 88.35133985 49.12988281 89.84912109 C50.24580788 91.93102173 51.35592138 94.01592556 52.46484375 96.1015625 C52.95892982 97.01816147 52.95892982 97.01816147 53.46299744 97.95327759 C55.41401684 101.63972421 56.65723389 104.97170168 58 109 C49.42 109 40.84 109 32 109 C30.845 106.73125 29.69 104.4625 28.5 102.125 C28.13455078 101.41230957 27.76910156 100.69961914 27.39257812 99.96533203 C25 95.22222222 25 95.22222222 25 93 C8.83 93 -7.34 93 -24 93 C-24.66 94.98 -25.32 96.96 -26 99 C-27.65 102.3 -29.3 105.6 -31 109 C-39.58 109 -48.16 109 -57 109 C-56.19429569 104.97147847 -55.67553311 103.02577203 -53.76953125 99.6484375 C-53.07053711 98.39256836 -53.07053711 98.39256836 -52.35742188 97.11132812 C-51.59268555 95.7568457 -51.59268555 95.7568457 -50.8125 94.375 C-46.06090766 85.82213379 -41.47354588 77.20145614 -37 68.5 C-32.33250465 59.43776844 -27.5544373 50.4522405 -22.62915039 41.52783203 C-19.68501274 36.16548833 -16.82414199 30.76634026 -14.0234375 25.328125 C-13.68406662 24.66920258 -13.34469574 24.01028015 -12.99504089 23.33139038 C-11.31878309 20.07216217 -9.64917852 16.80966891 -7.98657227 13.54345703 C-7.375189 12.34927042 -6.76378069 11.15509663 -6.15234375 9.9609375 C-5.3478479 8.37998291 -5.3478479 8.37998291 -4.52709961 6.76708984 C-3.17680603 4.32037082 -1.74326589 2.17736752 0 0 Z M0 47 C-1.83961674 50.78864975 -3.67062072 54.58139775 -5.5 58.375 C-6.02464844 59.45523438 -6.54929687 60.53546875 -7.08984375 61.6484375 C-7.58613281 62.6796875 -8.08242187 63.7109375 -8.59375 64.7734375 C-9.05458984 65.72653809 -9.51542969 66.67963867 -9.99023438 67.66162109 C-11.13214656 69.88150607 -11.13214656 69.88150607 -11 72 C-3.41 72 4.18 72 12 72 C9.7935599 65.07586528 9.7935599 65.07586528 6.95703125 58.62109375 C6.60576172 57.92822266 6.25449219 57.23535156 5.89257812 56.52148438 C5.53615234 55.83376953 5.17972656 55.14605469 4.8125 54.4375 C4.44447266 53.71498047 4.07644531 52.99246094 3.69726562 52.24804688 C2.80375687 50.49584138 1.90269225 48.74749212 1 47 C0.67 47 0.34 47 0 47 Z " fill="white" transform="translate(3022,748)"/>
<path d="M0 0 C8.58 0 17.16 0 26 0 C32.09007358 12.12375759 38.06789365 24.29829823 44 36.5 C44.87882752 38.30602789 45.75773335 40.11201769 46.63671875 41.91796875 C48.75871182 46.27820889 50.87965734 50.63895706 53 55 C55.05743985 52.94256015 55.8819998 51.40401515 57.109375 48.79296875 C57.52783691 47.90947754 57.94629883 47.02598633 58.37744141 46.11572266 C58.83038574 45.14940918 59.28333008 44.1830957 59.75 43.1875 C60.73120636 41.115618 61.71300761 39.04401765 62.6953125 36.97265625 C63.22286133 35.85777832 63.75041016 34.74290039 64.29394531 33.59423828 C67.06856033 27.74880579 69.87064698 21.91669442 72.67980957 16.08779907 C73.61883392 14.13780459 74.55506479 12.18648493 75.49121094 10.23510742 C76.35020996 8.45197144 76.35020996 8.45197144 77.2265625 6.6328125 C77.73783691 5.56949707 78.24911133 4.50618164 78.77587891 3.41064453 C80 1 80 1 81 0 C82.92667507 -0.08748207 84.85651861 -0.10697334 86.78515625 -0.09765625 C87.95498047 -0.09443359 89.12480469 -0.09121094 90.33007812 -0.08789062 C91.56177734 -0.07951172 92.79347656 -0.07113281 94.0625 -0.0625 C95.91584961 -0.05573242 95.91584961 -0.05573242 97.80664062 -0.04882812 C100.87114117 -0.03699608 103.93554721 -0.02051173 107 0 C105.63286306 4.41716619 103.90423829 8.43006305 101.82641602 12.55834961 C101.51217178 13.18552383 101.19792755 13.81269806 100.87416077 14.45887756 C99.8377486 16.52523379 98.79576963 18.58873148 97.75390625 20.65234375 C97.02041499 22.1130382 96.2873449 23.57394421 95.55467224 25.03504944 C93.62075182 28.88960017 91.68241127 32.74190905 89.74273682 36.59356689 C86.30387136 43.42310355 82.87130185 50.25579871 79.44140625 57.08984375 C79.07186451 57.82557995 78.70232277 58.56131615 78.32158279 59.31934738 C73.2757471 69.37017352 68.30908332 79.45227633 63.54432678 89.6403656 C60.60169475 95.89721619 57.36429878 101.9600142 54 108 C53.34 108 52.68 108 52 108 C51.73074707 107.43120117 51.46149414 106.86240234 51.18408203 106.27636719 C44.59733775 92.39198053 37.83394127 78.60753711 30.9375 64.875 C25.44899973 53.9457169 20.02016002 42.99791021 14.79345703 31.94018555 C11.11165557 24.16773393 7.26274419 16.48328757 3.34985352 8.82470703 C2.91084717 7.9582959 2.47184082 7.09188477 2.01953125 6.19921875 C1.62870361 5.43440186 1.23787598 4.66958496 0.83520508 3.8815918 C0 2 0 2 0 0 Z " fill="white" transform="translate(3554,751)"/>
<path d="M0 0 C9.2117184 -1.43184851 18.94332835 -2.74090396 28 0 C34.36098188 5.00927323 37.40390413 12.75213274 40.60351562 19.99365234 C42.63530924 24.36769195 45.21141107 28.30340626 47.875 32.3125 C52 38.69191512 52 38.69191512 52 41 C52.66 41 53.32 41 54 41 C54.26337158 40.28537598 54.52674316 39.57075195 54.7980957 38.83447266 C56.04565304 35.8923356 57.52656152 33.35046041 59.23046875 30.6484375 C59.86919922 29.63136719 60.50792969 28.61429688 61.16601562 27.56640625 C62.16665039 25.98666016 62.16665039 25.98666016 63.1875 24.375 C64.15913086 22.83005859 64.15913086 22.83005859 65.15039062 21.25390625 C67.09462145 18.16566748 69.04646678 15.08236101 71 12 C71.66467285 10.9471582 72.3293457 9.89431641 73.01416016 8.80957031 C73.64499512 7.81280273 74.27583008 6.81603516 74.92578125 5.7890625 C75.49337158 4.8913916 76.06096191 3.9937207 76.64575195 3.06884766 C78 1 78 1 79 0 C80.99964982 -0.08758003 83.0023611 -0.10696576 85.00390625 -0.09765625 C86.21884766 -0.09443359 87.43378906 -0.09121094 88.68554688 -0.08789062 C89.96494141 -0.07951172 91.24433594 -0.07113281 92.5625 -0.0625 C93.84576172 -0.05798828 95.12902344 -0.05347656 96.45117188 -0.04882812 C99.63416022 -0.03699545 102.81705762 -0.02051068 106 0 C104.67724536 3.55208977 103.10330349 6.65350772 101.0859375 9.859375 C100.49748047 10.79821533 99.90902344 11.73705566 99.30273438 12.7043457 C98.66658203 13.70941162 98.03042969 14.71447754 97.375 15.75 C96.71564453 16.79824951 96.05628906 17.84649902 95.37695312 18.92651367 C89.18654159 28.7496349 82.93003327 38.5307469 76.65625 48.30078125 C76.05433838 49.26346924 75.45242676 50.22615723 74.83227539 51.21801758 C73 54 73 54 71.00952148 56.4284668 C64.05175636 65.40905414 64.99445242 75.34183394 65.0625 86.1875 C65.04937063 88.11265424 65.03312064 90.03778986 65.01367188 91.96289062 C64.9673291 96.64351084 64.98508108 101.31758991 65 106 C57.08 106 49.16 106 41 106 C41.10183594 103.31875 41.20367188 100.6375 41.30859375 97.875 C41.840984 76.14862396 41.12507831 61.1239748 27.07080078 43.66210938 C23.59740135 39.19689511 20.71654042 34.37228738 17.75 29.5625 C16.6105487 27.76452732 15.46739745 25.96889339 14.3203125 24.17578125 C13.77020508 23.31549316 13.22009766 22.45520508 12.65332031 21.56884766 C11.00697705 19.01084059 9.34646481 16.46270096 7.6796875 13.91796875 C6.9047998 12.73255493 6.9047998 12.73255493 6.11425781 11.52319336 C5.14647309 10.04597311 4.17468357 8.57136606 3.19824219 7.09985352 C0 2.22040607 0 2.22040607 0 0 Z " fill="white" transform="translate(3308,751)"/>
<path d="M0 0 C27.72 0 55.44 0 84 0 C84 6.93 84 13.86 84 21 C74.1 21 64.2 21 54 21 C54 49.05 54 77.1 54 106 C46.08 106 38.16 106 30 106 C30 77.95 30 49.9 30 21 C20.1 21 10.2 21 0 21 C0 14.07 0 7.14 0 0 Z " fill="white" transform="translate(3892,751)"/>
<path d="M0 0 C27.72 0 55.44 0 84 0 C84 6.93 84 13.86 84 21 C74.1 21 64.2 21 54 21 C54 49.05 54 77.1 54 106 C46.08 106 38.16 106 30 106 C30 77.95 30 49.9 30 21 C20.1 21 10.2 21 0 21 C0 14.07 0 7.14 0 0 Z " fill="white" transform="translate(3664,751)"/>
<path d="M0 0 C28.05 0 56.1 0 85 0 C85 6.93 85 13.86 85 21 C74.77 21 64.54 21 54 21 C54 49.05 54 77.1 54 106 C46.41 106 38.82 106 31 106 C31 77.95 31 49.9 31 21 C20.77 21 10.54 21 0 21 C0 14.07 0 7.14 0 0 Z " fill="white" transform="translate(2896,751)"/>
<path d="M0 0 C28.05 0 56.1 0 85 0 C85 6.93 85 13.86 85 21 C74.77 21 64.54 21 54 21 C54 49.05 54 77.1 54 106 C46.41 106 38.82 106 31 106 C31 77.95 31 49.9 31 21 C20.77 21 10.54 21 0 21 C0 14.07 0 7.14 0 0 Z " fill="white" transform="translate(1819,751)"/>
<path d="M0 0 C7.92 0 15.84 0 24 0 C24 28.05 24 56.1 24 85 C41.82 85 59.64 85 78 85 C78 91.93 78 98.86 78 106 C52.26 106 26.52 106 0 106 C0 71.02 0 36.04 0 0 Z " fill="white" transform="translate(3824,751)"/>
<path d="M0 0 C7.59 0 15.18 0 23 0 C23 28.05 23 56.1 23 85 C41.15 85 59.3 85 78 85 C78 91.93 78 98.86 78 106 C52.26 106 26.52 106 0 106 C0 71.02 0 36.04 0 0 Z " fill="white" transform="translate(2829,751)"/>
<path d="M0 0 C7.92 0 15.84 0 24 0 C24 34.98 24 69.96 24 106 C16.08 106 8.16 106 0 106 C0 71.02 0 36.04 0 0 Z " fill="white" transform="translate(1919,751)"/>
<path d="M0 0 C3.18500291 1.62145603 5.22111096 2.97328264 7.375 5.8125 C8.60440405 10.11541417 8.62297139 13.69472662 6.6875 17.75 C4.24550447 21.00599404 2.91585593 22.69471469 -1 24 C-5.15286777 24.39177998 -7.48969587 24.25515206 -11.25 22.375 C-14.35526323 19.69318176 -15.70339826 17.88980521 -17 14 C-17 7.91567979 -15.08106025 5.1805983 -11 1 C-7.52817697 -0.73591152 -3.79591036 -0.46571673 0 0 Z " fill="white" transform="translate(3760,834)"/>
<path d="M0 0 C3.10352458 1.60923497 5.21701424 3.00347267 7.375 5.75 C8.65916889 10.37300801 8.6348239 14.41294026 6.875 18.8125 C4.40595586 21.6930515 2.61749518 22.79416827 -1 24 C-5.68611478 24.20661882 -9.03791417 23.6213471 -13 21.0625 C-16.50447172 17.44851353 -16.3906884 14.41813637 -16.35546875 9.55078125 C-15.7778449 5.4058541 -14.06536529 3.78021503 -11 1 C-7.27348227 -0.24217258 -3.87057926 -0.5341253 0 0 Z " fill="white" transform="translate(4114,834)"/>
</svg>
